<mxfile host="app.diagrams.net" modified="2023-06-10T07:48:22.956Z" agent="Mozilla/5.0 (Windows NT 10.0; Win64; x64) AppleWebKit/537.36 (KHTML, like Gecko) Chrome/113.0.0.0 Safari/537.36" etag="XF3PKaApA7kfBNgsWVtw" version="21.3.7" type="github">
  <diagram name="第 1 页" id="RlWcdQBYCA7oX_HSbWhf">
    <mxGraphModel dx="5274" dy="1134" grid="0" gridSize="10" guides="1" tooltips="1" connect="1" arrows="1" fold="1" page="0" pageScale="1" pageWidth="827" pageHeight="1169" math="0" shadow="0">
      <root>
        <mxCell id="0" />
        <mxCell id="1" parent="0" />
        <mxCell id="5FygrM8ZOsFcztVGFmqP-1" value="&lt;b&gt;arena 0&lt;/b&gt;" style="rounded=0;whiteSpace=wrap;html=1;" parent="1" vertex="1">
          <mxGeometry x="-276" y="488" width="62" height="41" as="geometry" />
        </mxCell>
        <mxCell id="5FygrM8ZOsFcztVGFmqP-2" value="" style="rounded=0;whiteSpace=wrap;html=1;" parent="1" vertex="1">
          <mxGeometry x="-37" y="379" width="120" height="60" as="geometry" />
        </mxCell>
        <mxCell id="5FygrM8ZOsFcztVGFmqP-3" value="" style="rounded=0;whiteSpace=wrap;html=1;" parent="1" vertex="1">
          <mxGeometry x="80" y="379" width="120" height="60" as="geometry" />
        </mxCell>
        <mxCell id="5FygrM8ZOsFcztVGFmqP-4" value="" style="rounded=0;whiteSpace=wrap;html=1;" parent="1" vertex="1">
          <mxGeometry x="200" y="379" width="120" height="60" as="geometry" />
        </mxCell>
        <mxCell id="5FygrM8ZOsFcztVGFmqP-5" value="" style="rounded=0;whiteSpace=wrap;html=1;" parent="1" vertex="1">
          <mxGeometry x="318" y="379" width="120" height="60" as="geometry" />
        </mxCell>
        <mxCell id="5FygrM8ZOsFcztVGFmqP-6" value="" style="rounded=0;whiteSpace=wrap;html=1;" parent="1" vertex="1">
          <mxGeometry x="438" y="379" width="120" height="60" as="geometry" />
        </mxCell>
        <mxCell id="5FygrM8ZOsFcztVGFmqP-7" value="&lt;b&gt;arena 1&lt;/b&gt;" style="rounded=0;whiteSpace=wrap;html=1;" parent="1" vertex="1">
          <mxGeometry x="-214" y="488" width="62" height="41" as="geometry" />
        </mxCell>
        <mxCell id="5FygrM8ZOsFcztVGFmqP-8" value="&lt;b&gt;arena 1&lt;/b&gt;" style="rounded=0;whiteSpace=wrap;html=1;" parent="1" vertex="1">
          <mxGeometry x="-152" y="488" width="62" height="41" as="geometry" />
        </mxCell>
        <mxCell id="5FygrM8ZOsFcztVGFmqP-9" value="&lt;b&gt;arena 0&lt;br&gt;&lt;/b&gt;" style="rounded=0;whiteSpace=wrap;html=1;" parent="1" vertex="1">
          <mxGeometry x="-206" y="608" width="62" height="41" as="geometry" />
        </mxCell>
        <mxCell id="5FygrM8ZOsFcztVGFmqP-10" value="&lt;b&gt;arena 1&lt;br&gt;&lt;/b&gt;" style="rounded=0;whiteSpace=wrap;html=1;" parent="1" vertex="1">
          <mxGeometry x="-144" y="608" width="62" height="41" as="geometry" />
        </mxCell>
        <mxCell id="5FygrM8ZOsFcztVGFmqP-11" value="&lt;b&gt;arena 2&lt;br&gt;&lt;/b&gt;" style="rounded=0;whiteSpace=wrap;html=1;" parent="1" vertex="1">
          <mxGeometry x="-84" y="608" width="62" height="41" as="geometry" />
        </mxCell>
        <mxCell id="5FygrM8ZOsFcztVGFmqP-58" style="edgeStyle=orthogonalEdgeStyle;rounded=0;orthogonalLoop=1;jettySize=auto;html=1;entryX=0.52;entryY=-0.07;entryDx=0;entryDy=0;entryPerimeter=0;" parent="1" source="5FygrM8ZOsFcztVGFmqP-12" target="5FygrM8ZOsFcztVGFmqP-23" edge="1">
          <mxGeometry relative="1" as="geometry" />
        </mxCell>
        <mxCell id="5FygrM8ZOsFcztVGFmqP-12" value="&lt;b&gt;arena 3&lt;br&gt;&lt;/b&gt;" style="rounded=0;whiteSpace=wrap;html=1;" parent="1" vertex="1">
          <mxGeometry x="-22" y="608" width="62" height="41" as="geometry" />
        </mxCell>
        <mxCell id="5FygrM8ZOsFcztVGFmqP-13" value="&lt;b&gt;arena 4&lt;br&gt;&lt;/b&gt;" style="rounded=0;whiteSpace=wrap;html=1;" parent="1" vertex="1">
          <mxGeometry x="40" y="608" width="62" height="41" as="geometry" />
        </mxCell>
        <mxCell id="5FygrM8ZOsFcztVGFmqP-14" value="&lt;b&gt;arena 5&lt;br&gt;&lt;/b&gt;" style="rounded=0;whiteSpace=wrap;html=1;" parent="1" vertex="1">
          <mxGeometry x="102" y="608" width="62" height="41" as="geometry" />
        </mxCell>
        <mxCell id="5FygrM8ZOsFcztVGFmqP-15" value="&lt;b&gt;arena 6&lt;br&gt;&lt;/b&gt;" style="rounded=0;whiteSpace=wrap;html=1;" parent="1" vertex="1">
          <mxGeometry x="162" y="608" width="62" height="41" as="geometry" />
        </mxCell>
        <mxCell id="5FygrM8ZOsFcztVGFmqP-16" value="&lt;b&gt;arena 7&lt;br&gt;&lt;/b&gt;" style="rounded=0;whiteSpace=wrap;html=1;" parent="1" vertex="1">
          <mxGeometry x="224" y="608" width="62" height="41" as="geometry" />
        </mxCell>
        <mxCell id="5FygrM8ZOsFcztVGFmqP-19" value="&lt;b&gt;pool 0&lt;br&gt;&lt;/b&gt;" style="rounded=0;whiteSpace=wrap;html=1;" parent="1" vertex="1">
          <mxGeometry x="-206" y="696" width="62" height="41" as="geometry" />
        </mxCell>
        <mxCell id="5FygrM8ZOsFcztVGFmqP-21" value="&lt;b&gt;pool 1&lt;br&gt;&lt;/b&gt;" style="rounded=0;whiteSpace=wrap;html=1;" parent="1" vertex="1">
          <mxGeometry x="-147" y="696" width="62" height="41" as="geometry" />
        </mxCell>
        <mxCell id="5FygrM8ZOsFcztVGFmqP-22" value="&lt;b&gt;pool 2&lt;br&gt;&lt;/b&gt;" style="rounded=0;whiteSpace=wrap;html=1;" parent="1" vertex="1">
          <mxGeometry x="-85" y="696" width="62" height="41" as="geometry" />
        </mxCell>
        <mxCell id="5FygrM8ZOsFcztVGFmqP-23" value="&lt;b&gt;pool 3&lt;br&gt;&lt;/b&gt;" style="rounded=0;whiteSpace=wrap;html=1;" parent="1" vertex="1">
          <mxGeometry x="-23" y="696" width="62" height="41" as="geometry" />
        </mxCell>
        <mxCell id="5FygrM8ZOsFcztVGFmqP-24" value="&lt;b&gt;pool 4&lt;br&gt;&lt;/b&gt;" style="rounded=0;whiteSpace=wrap;html=1;" parent="1" vertex="1">
          <mxGeometry x="39" y="696" width="62" height="41" as="geometry" />
        </mxCell>
        <mxCell id="5FygrM8ZOsFcztVGFmqP-25" value="&lt;b&gt;pool 5&lt;br&gt;&lt;/b&gt;" style="rounded=0;whiteSpace=wrap;html=1;" parent="1" vertex="1">
          <mxGeometry x="98" y="696" width="62" height="41" as="geometry" />
        </mxCell>
        <mxCell id="5FygrM8ZOsFcztVGFmqP-26" value="&lt;b&gt;pool 6&lt;br&gt;&lt;/b&gt;" style="rounded=0;whiteSpace=wrap;html=1;" parent="1" vertex="1">
          <mxGeometry x="160" y="696" width="62" height="41" as="geometry" />
        </mxCell>
        <mxCell id="5FygrM8ZOsFcztVGFmqP-27" value="&lt;b&gt;pool 7&lt;br&gt;&lt;/b&gt;" style="rounded=0;whiteSpace=wrap;html=1;" parent="1" vertex="1">
          <mxGeometry x="222" y="696" width="62" height="41" as="geometry" />
        </mxCell>
        <mxCell id="5FygrM8ZOsFcztVGFmqP-29" value="&lt;b&gt;pool&amp;nbsp;&lt;br&gt;&lt;/b&gt;" style="rounded=0;whiteSpace=wrap;html=1;" parent="1" vertex="1">
          <mxGeometry x="-206" y="737" width="62" height="41" as="geometry" />
        </mxCell>
        <mxCell id="5FygrM8ZOsFcztVGFmqP-30" value="&lt;b&gt;pool&amp;nbsp;&lt;br&gt;&lt;/b&gt;" style="rounded=0;whiteSpace=wrap;html=1;" parent="1" vertex="1">
          <mxGeometry x="-147" y="737" width="62" height="41" as="geometry" />
        </mxCell>
        <mxCell id="5FygrM8ZOsFcztVGFmqP-31" value="&lt;b&gt;pool&amp;nbsp;&lt;br&gt;&lt;/b&gt;" style="rounded=0;whiteSpace=wrap;html=1;" parent="1" vertex="1">
          <mxGeometry x="-85" y="737" width="62" height="41" as="geometry" />
        </mxCell>
        <mxCell id="5FygrM8ZOsFcztVGFmqP-32" value="&lt;b&gt;pool&amp;nbsp;&lt;br&gt;&lt;/b&gt;" style="rounded=0;whiteSpace=wrap;html=1;" parent="1" vertex="1">
          <mxGeometry x="-23" y="737" width="62" height="41" as="geometry" />
        </mxCell>
        <mxCell id="5FygrM8ZOsFcztVGFmqP-33" value="&lt;b&gt;pool&amp;nbsp;&lt;br&gt;&lt;/b&gt;" style="rounded=0;whiteSpace=wrap;html=1;" parent="1" vertex="1">
          <mxGeometry x="39" y="737" width="62" height="41" as="geometry" />
        </mxCell>
        <mxCell id="5FygrM8ZOsFcztVGFmqP-34" value="&lt;b&gt;pool&amp;nbsp;&lt;br&gt;&lt;/b&gt;" style="rounded=0;whiteSpace=wrap;html=1;" parent="1" vertex="1">
          <mxGeometry x="98" y="737" width="62" height="41" as="geometry" />
        </mxCell>
        <mxCell id="5FygrM8ZOsFcztVGFmqP-35" value="&lt;b&gt;pool&amp;nbsp;&lt;br&gt;&lt;/b&gt;" style="rounded=0;whiteSpace=wrap;html=1;" parent="1" vertex="1">
          <mxGeometry x="160" y="737" width="62" height="41" as="geometry" />
        </mxCell>
        <mxCell id="5FygrM8ZOsFcztVGFmqP-36" value="&lt;b&gt;pool&amp;nbsp;&lt;br&gt;&lt;/b&gt;" style="rounded=0;whiteSpace=wrap;html=1;" parent="1" vertex="1">
          <mxGeometry x="222" y="737" width="62" height="41" as="geometry" />
        </mxCell>
        <mxCell id="5FygrM8ZOsFcztVGFmqP-59" value="&lt;b&gt;pool&amp;nbsp;&lt;br&gt;&lt;/b&gt;" style="rounded=0;whiteSpace=wrap;html=1;" parent="1" vertex="1">
          <mxGeometry x="-206" y="778" width="62" height="41" as="geometry" />
        </mxCell>
        <mxCell id="5FygrM8ZOsFcztVGFmqP-60" value="&lt;b&gt;pool&amp;nbsp;&lt;br&gt;&lt;/b&gt;" style="rounded=0;whiteSpace=wrap;html=1;" parent="1" vertex="1">
          <mxGeometry x="-147" y="778" width="62" height="41" as="geometry" />
        </mxCell>
        <mxCell id="5FygrM8ZOsFcztVGFmqP-61" value="&lt;b&gt;pool&amp;nbsp;&lt;br&gt;&lt;/b&gt;" style="rounded=0;whiteSpace=wrap;html=1;" parent="1" vertex="1">
          <mxGeometry x="-85" y="778" width="62" height="41" as="geometry" />
        </mxCell>
        <mxCell id="5FygrM8ZOsFcztVGFmqP-62" value="&lt;b&gt;pool&amp;nbsp;&lt;br&gt;&lt;/b&gt;" style="rounded=0;whiteSpace=wrap;html=1;" parent="1" vertex="1">
          <mxGeometry x="-23" y="778" width="62" height="41" as="geometry" />
        </mxCell>
        <mxCell id="5FygrM8ZOsFcztVGFmqP-63" value="&lt;b&gt;pool&amp;nbsp;&lt;br&gt;&lt;/b&gt;" style="rounded=0;whiteSpace=wrap;html=1;" parent="1" vertex="1">
          <mxGeometry x="39" y="778" width="62" height="41" as="geometry" />
        </mxCell>
        <mxCell id="5FygrM8ZOsFcztVGFmqP-64" value="&lt;b&gt;pool&amp;nbsp;&lt;br&gt;&lt;/b&gt;" style="rounded=0;whiteSpace=wrap;html=1;" parent="1" vertex="1">
          <mxGeometry x="98" y="778" width="62" height="41" as="geometry" />
        </mxCell>
        <mxCell id="5FygrM8ZOsFcztVGFmqP-65" value="&lt;b&gt;pool&amp;nbsp;&lt;br&gt;&lt;/b&gt;" style="rounded=0;whiteSpace=wrap;html=1;" parent="1" vertex="1">
          <mxGeometry x="160" y="778" width="62" height="41" as="geometry" />
        </mxCell>
        <mxCell id="5FygrM8ZOsFcztVGFmqP-66" value="&lt;b&gt;pool&amp;nbsp;&lt;br&gt;&lt;/b&gt;" style="rounded=0;whiteSpace=wrap;html=1;" parent="1" vertex="1">
          <mxGeometry x="222" y="778" width="62" height="41" as="geometry" />
        </mxCell>
        <mxCell id="5FygrM8ZOsFcztVGFmqP-67" value="&lt;b&gt;pool&amp;nbsp;&lt;br&gt;&lt;/b&gt;" style="rounded=0;whiteSpace=wrap;html=1;" parent="1" vertex="1">
          <mxGeometry x="-206" y="819" width="62" height="41" as="geometry" />
        </mxCell>
        <mxCell id="5FygrM8ZOsFcztVGFmqP-68" value="&lt;b&gt;pool&amp;nbsp;&lt;br&gt;&lt;/b&gt;" style="rounded=0;whiteSpace=wrap;html=1;" parent="1" vertex="1">
          <mxGeometry x="-147" y="819" width="62" height="41" as="geometry" />
        </mxCell>
        <mxCell id="5FygrM8ZOsFcztVGFmqP-69" value="&lt;b&gt;pool&amp;nbsp;&lt;br&gt;&lt;/b&gt;" style="rounded=0;whiteSpace=wrap;html=1;" parent="1" vertex="1">
          <mxGeometry x="-85" y="819" width="62" height="41" as="geometry" />
        </mxCell>
        <mxCell id="5FygrM8ZOsFcztVGFmqP-70" value="&lt;b&gt;pool&amp;nbsp;&lt;br&gt;&lt;/b&gt;" style="rounded=0;whiteSpace=wrap;html=1;" parent="1" vertex="1">
          <mxGeometry x="-23" y="819" width="62" height="41" as="geometry" />
        </mxCell>
        <mxCell id="5FygrM8ZOsFcztVGFmqP-71" value="&lt;b&gt;pool&amp;nbsp;&lt;br&gt;&lt;/b&gt;" style="rounded=0;whiteSpace=wrap;html=1;" parent="1" vertex="1">
          <mxGeometry x="39" y="819" width="62" height="41" as="geometry" />
        </mxCell>
        <mxCell id="5FygrM8ZOsFcztVGFmqP-72" value="&lt;b&gt;pool&amp;nbsp;&lt;br&gt;&lt;/b&gt;" style="rounded=0;whiteSpace=wrap;html=1;" parent="1" vertex="1">
          <mxGeometry x="98" y="819" width="62" height="41" as="geometry" />
        </mxCell>
        <mxCell id="5FygrM8ZOsFcztVGFmqP-73" value="&lt;b&gt;pool&amp;nbsp;&lt;br&gt;&lt;/b&gt;" style="rounded=0;whiteSpace=wrap;html=1;" parent="1" vertex="1">
          <mxGeometry x="160" y="819" width="62" height="41" as="geometry" />
        </mxCell>
        <mxCell id="5FygrM8ZOsFcztVGFmqP-74" value="&lt;b&gt;pool&amp;nbsp;&lt;br&gt;&lt;/b&gt;" style="rounded=0;whiteSpace=wrap;html=1;" parent="1" vertex="1">
          <mxGeometry x="222" y="819" width="62" height="41" as="geometry" />
        </mxCell>
        <mxCell id="5FygrM8ZOsFcztVGFmqP-75" value="&lt;b&gt;pool&amp;nbsp;&lt;br&gt;&lt;/b&gt;" style="rounded=0;whiteSpace=wrap;html=1;" parent="1" vertex="1">
          <mxGeometry x="-206" y="860" width="62" height="41" as="geometry" />
        </mxCell>
        <mxCell id="5FygrM8ZOsFcztVGFmqP-76" value="&lt;b&gt;pool&amp;nbsp;&lt;br&gt;&lt;/b&gt;" style="rounded=0;whiteSpace=wrap;html=1;" parent="1" vertex="1">
          <mxGeometry x="-147" y="860" width="62" height="41" as="geometry" />
        </mxCell>
        <mxCell id="5FygrM8ZOsFcztVGFmqP-77" value="&lt;b&gt;pool&amp;nbsp;&lt;br&gt;&lt;/b&gt;" style="rounded=0;whiteSpace=wrap;html=1;" parent="1" vertex="1">
          <mxGeometry x="-85" y="860" width="62" height="41" as="geometry" />
        </mxCell>
        <mxCell id="5FygrM8ZOsFcztVGFmqP-78" value="&lt;b&gt;pool&amp;nbsp;&lt;br&gt;&lt;/b&gt;" style="rounded=0;whiteSpace=wrap;html=1;" parent="1" vertex="1">
          <mxGeometry x="-23" y="860" width="62" height="41" as="geometry" />
        </mxCell>
        <mxCell id="5FygrM8ZOsFcztVGFmqP-79" value="&lt;b&gt;pool&amp;nbsp;&lt;br&gt;&lt;/b&gt;" style="rounded=0;whiteSpace=wrap;html=1;" parent="1" vertex="1">
          <mxGeometry x="39" y="860" width="62" height="41" as="geometry" />
        </mxCell>
        <mxCell id="5FygrM8ZOsFcztVGFmqP-80" value="&lt;b&gt;pool&amp;nbsp;&lt;br&gt;&lt;/b&gt;" style="rounded=0;whiteSpace=wrap;html=1;" parent="1" vertex="1">
          <mxGeometry x="98" y="860" width="62" height="41" as="geometry" />
        </mxCell>
        <mxCell id="5FygrM8ZOsFcztVGFmqP-81" value="&lt;b&gt;pool&amp;nbsp;&lt;br&gt;&lt;/b&gt;" style="rounded=0;whiteSpace=wrap;html=1;" parent="1" vertex="1">
          <mxGeometry x="160" y="860" width="62" height="41" as="geometry" />
        </mxCell>
        <mxCell id="5FygrM8ZOsFcztVGFmqP-82" value="&lt;b&gt;pool&amp;nbsp;&lt;br&gt;&lt;/b&gt;" style="rounded=0;whiteSpace=wrap;html=1;" parent="1" vertex="1">
          <mxGeometry x="222" y="860" width="62" height="41" as="geometry" />
        </mxCell>
        <mxCell id="5FygrM8ZOsFcztVGFmqP-83" value="&lt;b&gt;pool&amp;nbsp;&lt;br&gt;&lt;/b&gt;" style="rounded=0;whiteSpace=wrap;html=1;" parent="1" vertex="1">
          <mxGeometry x="-206" y="901" width="62" height="41" as="geometry" />
        </mxCell>
        <mxCell id="5FygrM8ZOsFcztVGFmqP-84" value="&lt;b&gt;pool&amp;nbsp;&lt;br&gt;&lt;/b&gt;" style="rounded=0;whiteSpace=wrap;html=1;" parent="1" vertex="1">
          <mxGeometry x="-147" y="901" width="62" height="41" as="geometry" />
        </mxCell>
        <mxCell id="5FygrM8ZOsFcztVGFmqP-85" value="&lt;b&gt;pool&amp;nbsp;&lt;br&gt;&lt;/b&gt;" style="rounded=0;whiteSpace=wrap;html=1;" parent="1" vertex="1">
          <mxGeometry x="-85" y="901" width="62" height="41" as="geometry" />
        </mxCell>
        <mxCell id="5FygrM8ZOsFcztVGFmqP-86" value="&lt;b&gt;pool&amp;nbsp;&lt;br&gt;&lt;/b&gt;" style="rounded=0;whiteSpace=wrap;html=1;" parent="1" vertex="1">
          <mxGeometry x="-23" y="901" width="62" height="41" as="geometry" />
        </mxCell>
        <mxCell id="5FygrM8ZOsFcztVGFmqP-87" value="&lt;b&gt;pool&amp;nbsp;&lt;br&gt;&lt;/b&gt;" style="rounded=0;whiteSpace=wrap;html=1;" parent="1" vertex="1">
          <mxGeometry x="39" y="901" width="62" height="41" as="geometry" />
        </mxCell>
        <mxCell id="5FygrM8ZOsFcztVGFmqP-88" value="&lt;b&gt;pool&amp;nbsp;&lt;br&gt;&lt;/b&gt;" style="rounded=0;whiteSpace=wrap;html=1;" parent="1" vertex="1">
          <mxGeometry x="98" y="901" width="62" height="41" as="geometry" />
        </mxCell>
        <mxCell id="5FygrM8ZOsFcztVGFmqP-89" value="&lt;b&gt;pool&amp;nbsp;&lt;br&gt;&lt;/b&gt;" style="rounded=0;whiteSpace=wrap;html=1;" parent="1" vertex="1">
          <mxGeometry x="160" y="901" width="62" height="41" as="geometry" />
        </mxCell>
        <mxCell id="5FygrM8ZOsFcztVGFmqP-90" value="&lt;b&gt;pool&amp;nbsp;&lt;br&gt;&lt;/b&gt;" style="rounded=0;whiteSpace=wrap;html=1;" parent="1" vertex="1">
          <mxGeometry x="222" y="901" width="62" height="41" as="geometry" />
        </mxCell>
        <mxCell id="5FygrM8ZOsFcztVGFmqP-91" value="&lt;b&gt;pool&amp;nbsp;&lt;br&gt;&lt;/b&gt;" style="rounded=0;whiteSpace=wrap;html=1;" parent="1" vertex="1">
          <mxGeometry x="-206" y="942" width="62" height="41" as="geometry" />
        </mxCell>
        <mxCell id="5FygrM8ZOsFcztVGFmqP-92" value="&lt;b&gt;pool&amp;nbsp;&lt;br&gt;&lt;/b&gt;" style="rounded=0;whiteSpace=wrap;html=1;" parent="1" vertex="1">
          <mxGeometry x="-147" y="942" width="62" height="41" as="geometry" />
        </mxCell>
        <mxCell id="5FygrM8ZOsFcztVGFmqP-93" value="&lt;b&gt;pool&amp;nbsp;&lt;br&gt;&lt;/b&gt;" style="rounded=0;whiteSpace=wrap;html=1;" parent="1" vertex="1">
          <mxGeometry x="-85" y="942" width="62" height="41" as="geometry" />
        </mxCell>
        <mxCell id="5FygrM8ZOsFcztVGFmqP-94" value="&lt;b&gt;pool&amp;nbsp;&lt;br&gt;&lt;/b&gt;" style="rounded=0;whiteSpace=wrap;html=1;" parent="1" vertex="1">
          <mxGeometry x="-23" y="942" width="62" height="41" as="geometry" />
        </mxCell>
        <mxCell id="5FygrM8ZOsFcztVGFmqP-95" value="&lt;b&gt;pool&amp;nbsp;&lt;br&gt;&lt;/b&gt;" style="rounded=0;whiteSpace=wrap;html=1;" parent="1" vertex="1">
          <mxGeometry x="39" y="942" width="62" height="41" as="geometry" />
        </mxCell>
        <mxCell id="5FygrM8ZOsFcztVGFmqP-96" value="&lt;b&gt;pool&amp;nbsp;&lt;br&gt;&lt;/b&gt;" style="rounded=0;whiteSpace=wrap;html=1;" parent="1" vertex="1">
          <mxGeometry x="98" y="942" width="62" height="41" as="geometry" />
        </mxCell>
        <mxCell id="5FygrM8ZOsFcztVGFmqP-97" value="&lt;b&gt;pool&amp;nbsp;&lt;br&gt;&lt;/b&gt;" style="rounded=0;whiteSpace=wrap;html=1;" parent="1" vertex="1">
          <mxGeometry x="160" y="942" width="62" height="41" as="geometry" />
        </mxCell>
        <mxCell id="5FygrM8ZOsFcztVGFmqP-98" value="&lt;b&gt;pool&amp;nbsp;&lt;br&gt;&lt;/b&gt;" style="rounded=0;whiteSpace=wrap;html=1;" parent="1" vertex="1">
          <mxGeometry x="222" y="942" width="62" height="41" as="geometry" />
        </mxCell>
        <mxCell id="5FygrM8ZOsFcztVGFmqP-99" value="&lt;b&gt;pool 56&lt;br&gt;&lt;/b&gt;" style="rounded=0;whiteSpace=wrap;html=1;" parent="1" vertex="1">
          <mxGeometry x="-206" y="983" width="62" height="41" as="geometry" />
        </mxCell>
        <mxCell id="5FygrM8ZOsFcztVGFmqP-100" value="&lt;b&gt;pool 57&amp;nbsp;&lt;br&gt;&lt;/b&gt;" style="rounded=0;whiteSpace=wrap;html=1;" parent="1" vertex="1">
          <mxGeometry x="-147" y="983" width="62" height="41" as="geometry" />
        </mxCell>
        <mxCell id="5FygrM8ZOsFcztVGFmqP-101" value="&lt;b&gt;pool 58&lt;br&gt;&lt;/b&gt;" style="rounded=0;whiteSpace=wrap;html=1;" parent="1" vertex="1">
          <mxGeometry x="-85" y="983" width="62" height="41" as="geometry" />
        </mxCell>
        <mxCell id="5FygrM8ZOsFcztVGFmqP-102" value="&lt;b&gt;pool 59&lt;br&gt;&lt;/b&gt;" style="rounded=0;whiteSpace=wrap;html=1;" parent="1" vertex="1">
          <mxGeometry x="-23" y="983" width="62" height="41" as="geometry" />
        </mxCell>
        <mxCell id="5FygrM8ZOsFcztVGFmqP-103" value="&lt;b&gt;pool 60&lt;br&gt;&lt;/b&gt;" style="rounded=0;whiteSpace=wrap;html=1;" parent="1" vertex="1">
          <mxGeometry x="39" y="983" width="62" height="41" as="geometry" />
        </mxCell>
        <mxCell id="5FygrM8ZOsFcztVGFmqP-104" value="&lt;b&gt;pool 61&amp;nbsp;&lt;br&gt;&lt;/b&gt;" style="rounded=0;whiteSpace=wrap;html=1;" parent="1" vertex="1">
          <mxGeometry x="98" y="983" width="62" height="41" as="geometry" />
        </mxCell>
        <mxCell id="5FygrM8ZOsFcztVGFmqP-105" value="&lt;b&gt;pool 62&lt;br&gt;&lt;/b&gt;" style="rounded=0;whiteSpace=wrap;html=1;" parent="1" vertex="1">
          <mxGeometry x="160" y="983" width="62" height="41" as="geometry" />
        </mxCell>
        <mxCell id="5FygrM8ZOsFcztVGFmqP-106" value="&lt;b&gt;pool 63&lt;br&gt;&lt;/b&gt;" style="rounded=0;whiteSpace=wrap;html=1;" parent="1" vertex="1">
          <mxGeometry x="222" y="983" width="62" height="41" as="geometry" />
        </mxCell>
        <mxCell id="5FygrM8ZOsFcztVGFmqP-107" value="&lt;b&gt;arena 0&lt;br&gt;&lt;/b&gt;" style="rounded=0;whiteSpace=wrap;html=1;" parent="1" vertex="1">
          <mxGeometry x="-814" y="608" width="62" height="41" as="geometry" />
        </mxCell>
        <mxCell id="5FygrM8ZOsFcztVGFmqP-108" value="&lt;b&gt;arena 1&lt;br&gt;&lt;/b&gt;" style="rounded=0;whiteSpace=wrap;html=1;" parent="1" vertex="1">
          <mxGeometry x="-752" y="608" width="62" height="41" as="geometry" />
        </mxCell>
        <mxCell id="5FygrM8ZOsFcztVGFmqP-109" value="&lt;b&gt;arena 2&lt;br&gt;&lt;/b&gt;" style="rounded=0;whiteSpace=wrap;html=1;" parent="1" vertex="1">
          <mxGeometry x="-692" y="608" width="62" height="41" as="geometry" />
        </mxCell>
        <mxCell id="5FygrM8ZOsFcztVGFmqP-110" value="&lt;b&gt;arena 3&lt;br&gt;&lt;/b&gt;" style="rounded=0;whiteSpace=wrap;html=1;" parent="1" vertex="1">
          <mxGeometry x="-630" y="608" width="62" height="41" as="geometry" />
        </mxCell>
        <mxCell id="5FygrM8ZOsFcztVGFmqP-111" value="&lt;b&gt;arena 4&lt;br&gt;&lt;/b&gt;" style="rounded=0;whiteSpace=wrap;html=1;" parent="1" vertex="1">
          <mxGeometry x="-568" y="608" width="62" height="41" as="geometry" />
        </mxCell>
        <mxCell id="5FygrM8ZOsFcztVGFmqP-112" value="&lt;b&gt;arena 5&lt;br&gt;&lt;/b&gt;" style="rounded=0;whiteSpace=wrap;html=1;" parent="1" vertex="1">
          <mxGeometry x="-506" y="608" width="62" height="41" as="geometry" />
        </mxCell>
        <mxCell id="5FygrM8ZOsFcztVGFmqP-113" value="&lt;b&gt;arena 6&lt;br&gt;&lt;/b&gt;" style="rounded=0;whiteSpace=wrap;html=1;" parent="1" vertex="1">
          <mxGeometry x="-446" y="608" width="62" height="41" as="geometry" />
        </mxCell>
        <mxCell id="5FygrM8ZOsFcztVGFmqP-114" value="&lt;b&gt;arena 7&lt;br&gt;&lt;/b&gt;" style="rounded=0;whiteSpace=wrap;html=1;" parent="1" vertex="1">
          <mxGeometry x="-384" y="608" width="62" height="41" as="geometry" />
        </mxCell>
        <mxCell id="5FygrM8ZOsFcztVGFmqP-115" value="256 KB" style="rounded=0;whiteSpace=wrap;html=1;" parent="1" vertex="1">
          <mxGeometry x="-814" y="701" width="490" height="328" as="geometry" />
        </mxCell>
        <mxCell id="5FygrM8ZOsFcztVGFmqP-117" style="edgeStyle=orthogonalEdgeStyle;rounded=0;orthogonalLoop=1;jettySize=auto;html=1;entryX=0.52;entryY=-0.07;entryDx=0;entryDy=0;entryPerimeter=0;" parent="1" edge="1">
          <mxGeometry relative="1" as="geometry">
            <mxPoint x="-599.29" y="649" as="sourcePoint" />
            <mxPoint x="-599.29" y="693" as="targetPoint" />
          </mxGeometry>
        </mxCell>
        <mxCell id="5FygrM8ZOsFcztVGFmqP-119" value="4 KB pool" style="rounded=0;whiteSpace=wrap;html=1;" parent="1" vertex="1">
          <mxGeometry x="-814" y="1076" width="490" height="328" as="geometry" />
        </mxCell>
        <mxCell id="5FygrM8ZOsFcztVGFmqP-122" value="4 KB pool" style="rounded=0;whiteSpace=wrap;html=1;" parent="1" vertex="1">
          <mxGeometry x="-206" y="1076" width="430" height="228" as="geometry" />
        </mxCell>
        <mxCell id="5FygrM8ZOsFcztVGFmqP-120" value="&lt;b&gt;pool_header&lt;br&gt;&lt;/b&gt;" style="rounded=0;whiteSpace=wrap;html=1;" parent="1" vertex="1">
          <mxGeometry x="-206" y="1076" width="72" height="38" as="geometry" />
        </mxCell>
        <mxCell id="5FygrM8ZOsFcztVGFmqP-137" value="&lt;b&gt;block 0&lt;br&gt;&lt;/b&gt;" style="rounded=0;whiteSpace=wrap;html=1;" parent="1" vertex="1">
          <mxGeometry x="-134" y="1076" width="72" height="38" as="geometry" />
        </mxCell>
        <mxCell id="5FygrM8ZOsFcztVGFmqP-138" value="&lt;b&gt;block 0&lt;br&gt;&lt;/b&gt;" style="rounded=0;whiteSpace=wrap;html=1;" parent="1" vertex="1">
          <mxGeometry x="-62" y="1076" width="72" height="38" as="geometry" />
        </mxCell>
        <mxCell id="5FygrM8ZOsFcztVGFmqP-139" value="&lt;b&gt;block 0&lt;br&gt;&lt;/b&gt;" style="rounded=0;whiteSpace=wrap;html=1;" parent="1" vertex="1">
          <mxGeometry x="10" y="1076" width="72" height="38" as="geometry" />
        </mxCell>
        <mxCell id="5FygrM8ZOsFcztVGFmqP-140" value="&lt;b&gt;block 0&lt;br&gt;&lt;/b&gt;" style="rounded=0;whiteSpace=wrap;html=1;" parent="1" vertex="1">
          <mxGeometry x="80" y="1076" width="72" height="38" as="geometry" />
        </mxCell>
        <mxCell id="5FygrM8ZOsFcztVGFmqP-141" value="&lt;b&gt;block 0&lt;br&gt;&lt;/b&gt;" style="rounded=0;whiteSpace=wrap;html=1;" parent="1" vertex="1">
          <mxGeometry x="152" y="1076" width="72" height="38" as="geometry" />
        </mxCell>
        <mxCell id="5FygrM8ZOsFcztVGFmqP-142" value="&lt;b&gt;block&lt;br&gt;&lt;/b&gt;" style="rounded=0;whiteSpace=wrap;html=1;" parent="1" vertex="1">
          <mxGeometry x="-206" y="1114" width="72" height="38" as="geometry" />
        </mxCell>
        <mxCell id="5FygrM8ZOsFcztVGFmqP-143" value="&lt;b style=&quot;border-color: var(--border-color);&quot;&gt;block&lt;/b&gt;&lt;b&gt;&lt;br&gt;&lt;/b&gt;" style="rounded=0;whiteSpace=wrap;html=1;" parent="1" vertex="1">
          <mxGeometry x="-134" y="1114" width="72" height="38" as="geometry" />
        </mxCell>
        <mxCell id="5FygrM8ZOsFcztVGFmqP-144" value="&lt;b style=&quot;border-color: var(--border-color);&quot;&gt;block&lt;/b&gt;&lt;b&gt;&lt;br&gt;&lt;/b&gt;" style="rounded=0;whiteSpace=wrap;html=1;" parent="1" vertex="1">
          <mxGeometry x="-62" y="1114" width="72" height="38" as="geometry" />
        </mxCell>
        <mxCell id="5FygrM8ZOsFcztVGFmqP-145" value="&lt;b style=&quot;border-color: var(--border-color);&quot;&gt;block&lt;/b&gt;&lt;b&gt;&lt;br&gt;&lt;/b&gt;" style="rounded=0;whiteSpace=wrap;html=1;" parent="1" vertex="1">
          <mxGeometry x="10" y="1114" width="72" height="38" as="geometry" />
        </mxCell>
        <mxCell id="5FygrM8ZOsFcztVGFmqP-146" value="&lt;b style=&quot;border-color: var(--border-color);&quot;&gt;block&lt;/b&gt;&lt;b&gt;&lt;br&gt;&lt;/b&gt;" style="rounded=0;whiteSpace=wrap;html=1;" parent="1" vertex="1">
          <mxGeometry x="80" y="1114" width="72" height="38" as="geometry" />
        </mxCell>
        <mxCell id="5FygrM8ZOsFcztVGFmqP-147" value="&lt;b style=&quot;border-color: var(--border-color);&quot;&gt;block&lt;/b&gt;&lt;b&gt;&lt;br&gt;&lt;/b&gt;" style="rounded=0;whiteSpace=wrap;html=1;" parent="1" vertex="1">
          <mxGeometry x="152" y="1114" width="72" height="38" as="geometry" />
        </mxCell>
        <mxCell id="5FygrM8ZOsFcztVGFmqP-160" value="&lt;b&gt;block&lt;br&gt;&lt;/b&gt;" style="rounded=0;whiteSpace=wrap;html=1;" parent="1" vertex="1">
          <mxGeometry x="-206" y="1152" width="72" height="38" as="geometry" />
        </mxCell>
        <mxCell id="5FygrM8ZOsFcztVGFmqP-161" value="&lt;b style=&quot;border-color: var(--border-color);&quot;&gt;block&lt;/b&gt;&lt;b&gt;&lt;br&gt;&lt;/b&gt;" style="rounded=0;whiteSpace=wrap;html=1;" parent="1" vertex="1">
          <mxGeometry x="-134" y="1152" width="72" height="38" as="geometry" />
        </mxCell>
        <mxCell id="5FygrM8ZOsFcztVGFmqP-162" value="&lt;b style=&quot;border-color: var(--border-color);&quot;&gt;block&lt;/b&gt;&lt;b&gt;&lt;br&gt;&lt;/b&gt;" style="rounded=0;whiteSpace=wrap;html=1;" parent="1" vertex="1">
          <mxGeometry x="-62" y="1152" width="72" height="38" as="geometry" />
        </mxCell>
        <mxCell id="5FygrM8ZOsFcztVGFmqP-163" value="&lt;b style=&quot;border-color: var(--border-color);&quot;&gt;block&lt;/b&gt;&lt;b&gt;&lt;br&gt;&lt;/b&gt;" style="rounded=0;whiteSpace=wrap;html=1;" parent="1" vertex="1">
          <mxGeometry x="10" y="1152" width="72" height="38" as="geometry" />
        </mxCell>
        <mxCell id="5FygrM8ZOsFcztVGFmqP-164" value="&lt;b style=&quot;border-color: var(--border-color);&quot;&gt;block&lt;/b&gt;&lt;b&gt;&lt;br&gt;&lt;/b&gt;" style="rounded=0;whiteSpace=wrap;html=1;" parent="1" vertex="1">
          <mxGeometry x="80" y="1152" width="72" height="38" as="geometry" />
        </mxCell>
        <mxCell id="5FygrM8ZOsFcztVGFmqP-165" value="&lt;b style=&quot;border-color: var(--border-color);&quot;&gt;block&lt;/b&gt;&lt;b&gt;&lt;br&gt;&lt;/b&gt;" style="rounded=0;whiteSpace=wrap;html=1;" parent="1" vertex="1">
          <mxGeometry x="152" y="1152" width="72" height="38" as="geometry" />
        </mxCell>
        <mxCell id="5FygrM8ZOsFcztVGFmqP-166" value="&lt;b&gt;block&lt;br&gt;&lt;/b&gt;" style="rounded=0;whiteSpace=wrap;html=1;" parent="1" vertex="1">
          <mxGeometry x="-206" y="1190" width="72" height="38" as="geometry" />
        </mxCell>
        <mxCell id="5FygrM8ZOsFcztVGFmqP-167" value="&lt;b style=&quot;border-color: var(--border-color);&quot;&gt;block&lt;/b&gt;&lt;b&gt;&lt;br&gt;&lt;/b&gt;" style="rounded=0;whiteSpace=wrap;html=1;" parent="1" vertex="1">
          <mxGeometry x="-134" y="1190" width="72" height="38" as="geometry" />
        </mxCell>
        <mxCell id="5FygrM8ZOsFcztVGFmqP-168" value="&lt;b style=&quot;border-color: var(--border-color);&quot;&gt;block&lt;/b&gt;&lt;b&gt;&lt;br&gt;&lt;/b&gt;" style="rounded=0;whiteSpace=wrap;html=1;" parent="1" vertex="1">
          <mxGeometry x="-62" y="1190" width="72" height="38" as="geometry" />
        </mxCell>
        <mxCell id="5FygrM8ZOsFcztVGFmqP-169" value="&lt;b style=&quot;border-color: var(--border-color);&quot;&gt;block&lt;/b&gt;&lt;b&gt;&lt;br&gt;&lt;/b&gt;" style="rounded=0;whiteSpace=wrap;html=1;" parent="1" vertex="1">
          <mxGeometry x="10" y="1190" width="72" height="38" as="geometry" />
        </mxCell>
        <mxCell id="5FygrM8ZOsFcztVGFmqP-170" value="&lt;b style=&quot;border-color: var(--border-color);&quot;&gt;block&lt;/b&gt;&lt;b&gt;&lt;br&gt;&lt;/b&gt;" style="rounded=0;whiteSpace=wrap;html=1;" parent="1" vertex="1">
          <mxGeometry x="80" y="1190" width="72" height="38" as="geometry" />
        </mxCell>
        <mxCell id="5FygrM8ZOsFcztVGFmqP-171" value="&lt;b style=&quot;border-color: var(--border-color);&quot;&gt;block&lt;/b&gt;&lt;b&gt;&lt;br&gt;&lt;/b&gt;" style="rounded=0;whiteSpace=wrap;html=1;" parent="1" vertex="1">
          <mxGeometry x="152" y="1190" width="72" height="38" as="geometry" />
        </mxCell>
        <mxCell id="5FygrM8ZOsFcztVGFmqP-172" value="&lt;b&gt;block&lt;br&gt;&lt;/b&gt;" style="rounded=0;whiteSpace=wrap;html=1;" parent="1" vertex="1">
          <mxGeometry x="-206" y="1228" width="72" height="38" as="geometry" />
        </mxCell>
        <mxCell id="5FygrM8ZOsFcztVGFmqP-173" value="&lt;b style=&quot;border-color: var(--border-color);&quot;&gt;block&lt;/b&gt;&lt;b&gt;&lt;br&gt;&lt;/b&gt;" style="rounded=0;whiteSpace=wrap;html=1;" parent="1" vertex="1">
          <mxGeometry x="-134" y="1228" width="72" height="38" as="geometry" />
        </mxCell>
        <mxCell id="5FygrM8ZOsFcztVGFmqP-174" value="&lt;b style=&quot;border-color: var(--border-color);&quot;&gt;block&lt;/b&gt;&lt;b&gt;&lt;br&gt;&lt;/b&gt;" style="rounded=0;whiteSpace=wrap;html=1;" parent="1" vertex="1">
          <mxGeometry x="-62" y="1228" width="72" height="38" as="geometry" />
        </mxCell>
        <mxCell id="5FygrM8ZOsFcztVGFmqP-175" value="&lt;b style=&quot;border-color: var(--border-color);&quot;&gt;block&lt;/b&gt;&lt;b&gt;&lt;br&gt;&lt;/b&gt;" style="rounded=0;whiteSpace=wrap;html=1;" parent="1" vertex="1">
          <mxGeometry x="10" y="1266" width="72" height="38" as="geometry" />
        </mxCell>
        <mxCell id="5FygrM8ZOsFcztVGFmqP-176" value="&lt;b style=&quot;border-color: var(--border-color);&quot;&gt;block&lt;/b&gt;&lt;b&gt;&lt;br&gt;&lt;/b&gt;" style="rounded=0;whiteSpace=wrap;html=1;" parent="1" vertex="1">
          <mxGeometry x="80" y="1266" width="72" height="38" as="geometry" />
        </mxCell>
        <mxCell id="5FygrM8ZOsFcztVGFmqP-177" value="&lt;b style=&quot;border-color: var(--border-color);&quot;&gt;block&lt;/b&gt;&lt;b&gt;&lt;br&gt;&lt;/b&gt;" style="rounded=0;whiteSpace=wrap;html=1;" parent="1" vertex="1">
          <mxGeometry x="152" y="1266" width="72" height="38" as="geometry" />
        </mxCell>
        <mxCell id="5FygrM8ZOsFcztVGFmqP-184" value="&lt;b&gt;block&lt;br&gt;&lt;/b&gt;" style="rounded=0;whiteSpace=wrap;html=1;" parent="1" vertex="1">
          <mxGeometry x="-206" y="1266" width="72" height="38" as="geometry" />
        </mxCell>
        <mxCell id="5FygrM8ZOsFcztVGFmqP-185" value="&lt;b style=&quot;border-color: var(--border-color);&quot;&gt;block&lt;/b&gt;&lt;b&gt;&lt;br&gt;&lt;/b&gt;" style="rounded=0;whiteSpace=wrap;html=1;" parent="1" vertex="1">
          <mxGeometry x="-134" y="1266" width="72" height="38" as="geometry" />
        </mxCell>
        <mxCell id="5FygrM8ZOsFcztVGFmqP-186" value="&lt;b style=&quot;border-color: var(--border-color);&quot;&gt;block&lt;/b&gt;&lt;b&gt;&lt;br&gt;&lt;/b&gt;" style="rounded=0;whiteSpace=wrap;html=1;" parent="1" vertex="1">
          <mxGeometry x="-62" y="1266" width="72" height="38" as="geometry" />
        </mxCell>
        <mxCell id="5FygrM8ZOsFcztVGFmqP-187" value="&lt;b style=&quot;border-color: var(--border-color);&quot;&gt;block&lt;/b&gt;&lt;b&gt;&lt;br&gt;&lt;/b&gt;" style="rounded=0;whiteSpace=wrap;html=1;" parent="1" vertex="1">
          <mxGeometry x="10" y="1228" width="72" height="38" as="geometry" />
        </mxCell>
        <mxCell id="5FygrM8ZOsFcztVGFmqP-188" value="&lt;b style=&quot;border-color: var(--border-color);&quot;&gt;block&lt;/b&gt;&lt;b&gt;&lt;br&gt;&lt;/b&gt;" style="rounded=0;whiteSpace=wrap;html=1;" parent="1" vertex="1">
          <mxGeometry x="80" y="1228" width="72" height="38" as="geometry" />
        </mxCell>
        <mxCell id="5FygrM8ZOsFcztVGFmqP-189" value="&lt;b style=&quot;border-color: var(--border-color);&quot;&gt;block&lt;/b&gt;&lt;b&gt;&lt;br&gt;&lt;/b&gt;" style="rounded=0;whiteSpace=wrap;html=1;" parent="1" vertex="1">
          <mxGeometry x="152" y="1228" width="72" height="38" as="geometry" />
        </mxCell>
        <mxCell id="5FygrM8ZOsFcztVGFmqP-190" value="pool&lt;br&gt;4 KB" style="rounded=0;whiteSpace=wrap;html=1;" parent="1" vertex="1">
          <mxGeometry x="-206" y="1315" width="430" height="228" as="geometry" />
        </mxCell>
        <mxCell id="5FygrM8ZOsFcztVGFmqP-198" value="&lt;b&gt;arena 0&lt;br&gt;&lt;/b&gt;" style="rounded=0;whiteSpace=wrap;html=1;" parent="1" vertex="1">
          <mxGeometry x="-814" y="1545" width="62" height="41" as="geometry" />
        </mxCell>
        <mxCell id="5FygrM8ZOsFcztVGFmqP-199" value="&lt;b&gt;arena 1&lt;br&gt;&lt;/b&gt;" style="rounded=0;whiteSpace=wrap;html=1;" parent="1" vertex="1">
          <mxGeometry x="-752" y="1545" width="62" height="41" as="geometry" />
        </mxCell>
        <mxCell id="5FygrM8ZOsFcztVGFmqP-200" value="&lt;b&gt;arena 2&lt;br&gt;&lt;/b&gt;" style="rounded=0;whiteSpace=wrap;html=1;" parent="1" vertex="1">
          <mxGeometry x="-692" y="1545" width="62" height="41" as="geometry" />
        </mxCell>
        <mxCell id="5FygrM8ZOsFcztVGFmqP-201" value="&lt;b&gt;arena 3&lt;br&gt;&lt;/b&gt;" style="rounded=0;whiteSpace=wrap;html=1;" parent="1" vertex="1">
          <mxGeometry x="-630" y="1545" width="62" height="41" as="geometry" />
        </mxCell>
        <mxCell id="5FygrM8ZOsFcztVGFmqP-202" value="&lt;b&gt;arena 4&lt;br&gt;&lt;/b&gt;" style="rounded=0;whiteSpace=wrap;html=1;" parent="1" vertex="1">
          <mxGeometry x="-568" y="1545" width="62" height="41" as="geometry" />
        </mxCell>
        <mxCell id="5FygrM8ZOsFcztVGFmqP-203" value="&lt;b&gt;arena 5&lt;br&gt;&lt;/b&gt;" style="rounded=0;whiteSpace=wrap;html=1;" parent="1" vertex="1">
          <mxGeometry x="-507" y="1545" width="63" height="41" as="geometry" />
        </mxCell>
        <mxCell id="5FygrM8ZOsFcztVGFmqP-204" value="&lt;b&gt;arena 6&lt;br&gt;&lt;/b&gt;" style="rounded=0;whiteSpace=wrap;html=1;" parent="1" vertex="1">
          <mxGeometry x="-446" y="1545" width="62" height="41" as="geometry" />
        </mxCell>
        <mxCell id="5FygrM8ZOsFcztVGFmqP-205" value="&lt;b&gt;arena 7&lt;br&gt;&lt;/b&gt;" style="rounded=0;whiteSpace=wrap;html=1;" parent="1" vertex="1">
          <mxGeometry x="-384" y="1545" width="62" height="41" as="geometry" />
        </mxCell>
        <mxCell id="EJqy8XR-NQ5soKW403JW-1" value="func 1" style="rounded=0;whiteSpace=wrap;html=1;" parent="1" vertex="1">
          <mxGeometry x="-821" y="1699" width="120" height="60" as="geometry" />
        </mxCell>
        <mxCell id="EJqy8XR-NQ5soKW403JW-2" value="B object" style="rounded=0;whiteSpace=wrap;html=1;" parent="1" vertex="1">
          <mxGeometry x="-1032" y="2040" width="103" height="62" as="geometry" />
        </mxCell>
        <mxCell id="EJqy8XR-NQ5soKW403JW-19" style="edgeStyle=orthogonalEdgeStyle;rounded=0;orthogonalLoop=1;jettySize=auto;html=1;" parent="1" source="EJqy8XR-NQ5soKW403JW-3" target="EJqy8XR-NQ5soKW403JW-4" edge="1">
          <mxGeometry relative="1" as="geometry" />
        </mxCell>
        <mxCell id="EJqy8XR-NQ5soKW403JW-3" value="f" style="rounded=0;whiteSpace=wrap;html=1;" parent="1" vertex="1">
          <mxGeometry x="-1032" y="1916" width="84" height="21" as="geometry" />
        </mxCell>
        <mxCell id="EJqy8XR-NQ5soKW403JW-4" value="func 0" style="rounded=0;whiteSpace=wrap;html=1;" parent="1" vertex="1">
          <mxGeometry x="-912" y="1916" width="53" height="21" as="geometry" />
        </mxCell>
        <mxCell id="EJqy8XR-NQ5soKW403JW-5" value="func 1" style="rounded=0;whiteSpace=wrap;html=1;" parent="1" vertex="1">
          <mxGeometry x="-847" y="1916" width="54" height="21" as="geometry" />
        </mxCell>
        <mxCell id="EJqy8XR-NQ5soKW403JW-12" style="edgeStyle=orthogonalEdgeStyle;rounded=0;orthogonalLoop=1;jettySize=auto;html=1;entryX=0.5;entryY=0;entryDx=0;entryDy=0;" parent="1" source="EJqy8XR-NQ5soKW403JW-7" target="EJqy8XR-NQ5soKW403JW-2" edge="1">
          <mxGeometry relative="1" as="geometry" />
        </mxCell>
        <mxCell id="EJqy8XR-NQ5soKW403JW-7" value="ptr" style="rounded=0;whiteSpace=wrap;html=1;" parent="1" vertex="1">
          <mxGeometry x="-1032" y="1937" width="84" height="21" as="geometry" />
        </mxCell>
        <mxCell id="EJqy8XR-NQ5soKW403JW-8" value="C object" style="rounded=0;whiteSpace=wrap;html=1;" parent="1" vertex="1">
          <mxGeometry x="-772.5" y="2036" width="103" height="62" as="geometry" />
        </mxCell>
        <mxCell id="EJqy8XR-NQ5soKW403JW-20" style="edgeStyle=orthogonalEdgeStyle;rounded=0;orthogonalLoop=1;jettySize=auto;html=1;entryX=0.948;entryY=0.548;entryDx=0;entryDy=0;entryPerimeter=0;" parent="1" source="EJqy8XR-NQ5soKW403JW-9" target="EJqy8XR-NQ5soKW403JW-5" edge="1">
          <mxGeometry relative="1" as="geometry" />
        </mxCell>
        <mxCell id="EJqy8XR-NQ5soKW403JW-9" value="f" style="rounded=0;whiteSpace=wrap;html=1;" parent="1" vertex="1">
          <mxGeometry x="-753.5" y="1917" width="84" height="21" as="geometry" />
        </mxCell>
        <mxCell id="EJqy8XR-NQ5soKW403JW-13" style="edgeStyle=orthogonalEdgeStyle;rounded=0;orthogonalLoop=1;jettySize=auto;html=1;" parent="1" source="EJqy8XR-NQ5soKW403JW-10" target="EJqy8XR-NQ5soKW403JW-8" edge="1">
          <mxGeometry relative="1" as="geometry" />
        </mxCell>
        <mxCell id="EJqy8XR-NQ5soKW403JW-10" value="ptr" style="rounded=0;whiteSpace=wrap;html=1;" parent="1" vertex="1">
          <mxGeometry x="-753.5" y="1938" width="84" height="21" as="geometry" />
        </mxCell>
        <UserObject label="A object" placeholders="1" name="Variable" id="EJqy8XR-NQ5soKW403JW-15">
          <mxCell style="text;html=1;strokeColor=none;fillColor=none;align=center;verticalAlign=middle;whiteSpace=wrap;overflow=hidden;" parent="1" vertex="1">
            <mxGeometry x="-1032" y="1891" width="80" height="20" as="geometry" />
          </mxCell>
        </UserObject>
        <UserObject label="A object" placeholders="1" name="Variable" id="EJqy8XR-NQ5soKW403JW-16">
          <mxCell style="text;html=1;strokeColor=none;fillColor=none;align=center;verticalAlign=middle;whiteSpace=wrap;overflow=hidden;" parent="1" vertex="1">
            <mxGeometry x="-751.5" y="1889" width="80" height="20" as="geometry" />
          </mxCell>
        </UserObject>
        <mxCell id="EJqy8XR-NQ5soKW403JW-21" value="vtable for A" style="rounded=0;whiteSpace=wrap;html=1;" parent="1" vertex="1">
          <mxGeometry x="-503" y="2176" width="84" height="21" as="geometry" />
        </mxCell>
        <mxCell id="EJqy8XR-NQ5soKW403JW-22" value="ptr" style="rounded=0;whiteSpace=wrap;html=1;" parent="1" vertex="1">
          <mxGeometry x="-503" y="2197" width="84" height="21" as="geometry" />
        </mxCell>
        <mxCell id="EJqy8XR-NQ5soKW403JW-23" value="" style="rounded=0;whiteSpace=wrap;html=1;" parent="1" vertex="1">
          <mxGeometry x="-503" y="2218" width="84" height="21" as="geometry" />
        </mxCell>
        <mxCell id="EJqy8XR-NQ5soKW403JW-24" value="" style="rounded=0;whiteSpace=wrap;html=1;" parent="1" vertex="1">
          <mxGeometry x="-503" y="2239" width="84" height="21" as="geometry" />
        </mxCell>
        <mxCell id="EJqy8XR-NQ5soKW403JW-25" value="" style="rounded=0;whiteSpace=wrap;html=1;" parent="1" vertex="1">
          <mxGeometry x="-503" y="2260" width="84" height="21" as="geometry" />
        </mxCell>
        <mxCell id="EJqy8XR-NQ5soKW403JW-26" value="" style="rounded=0;whiteSpace=wrap;html=1;" parent="1" vertex="1">
          <mxGeometry x="-503" y="2281" width="84" height="21" as="geometry" />
        </mxCell>
        <mxCell id="EJqy8XR-NQ5soKW403JW-27" value="" style="rounded=0;whiteSpace=wrap;html=1;" parent="1" vertex="1">
          <mxGeometry x="-503" y="2302" width="84" height="21" as="geometry" />
        </mxCell>
        <mxCell id="EJqy8XR-NQ5soKW403JW-28" value="" style="rounded=0;whiteSpace=wrap;html=1;" parent="1" vertex="1">
          <mxGeometry x="-503" y="2323" width="84" height="21" as="geometry" />
        </mxCell>
        <mxCell id="EJqy8XR-NQ5soKW403JW-29" value="vtable for A" style="rounded=0;whiteSpace=wrap;html=1;" parent="1" vertex="1">
          <mxGeometry x="-503" y="2176" width="84" height="21" as="geometry" />
        </mxCell>
        <mxCell id="EJqy8XR-NQ5soKW403JW-30" value="ptr" style="rounded=0;whiteSpace=wrap;html=1;" parent="1" vertex="1">
          <mxGeometry x="-503" y="2197" width="84" height="21" as="geometry" />
        </mxCell>
        <mxCell id="EJqy8XR-NQ5soKW403JW-31" value="" style="rounded=0;whiteSpace=wrap;html=1;" parent="1" vertex="1">
          <mxGeometry x="-503" y="2218" width="84" height="21" as="geometry" />
        </mxCell>
        <mxCell id="EJqy8XR-NQ5soKW403JW-32" value="" style="rounded=0;whiteSpace=wrap;html=1;" parent="1" vertex="1">
          <mxGeometry x="-503" y="2239" width="84" height="21" as="geometry" />
        </mxCell>
        <mxCell id="EJqy8XR-NQ5soKW403JW-33" value="" style="rounded=0;whiteSpace=wrap;html=1;" parent="1" vertex="1">
          <mxGeometry x="-503" y="2260" width="84" height="21" as="geometry" />
        </mxCell>
        <mxCell id="EJqy8XR-NQ5soKW403JW-34" value="" style="rounded=0;whiteSpace=wrap;html=1;" parent="1" vertex="1">
          <mxGeometry x="-503" y="2281" width="84" height="21" as="geometry" />
        </mxCell>
        <mxCell id="EJqy8XR-NQ5soKW403JW-35" value="" style="rounded=0;whiteSpace=wrap;html=1;" parent="1" vertex="1">
          <mxGeometry x="-130" y="2256" width="84" height="21" as="geometry" />
        </mxCell>
        <mxCell id="EJqy8XR-NQ5soKW403JW-36" value="" style="rounded=0;whiteSpace=wrap;html=1;" parent="1" vertex="1">
          <mxGeometry x="-130" y="2277" width="84" height="21" as="geometry" />
        </mxCell>
        <mxCell id="EJqy8XR-NQ5soKW403JW-37" value="&lt;font color=&quot;#ff0000&quot;&gt;vtable for A&lt;/font&gt;" style="rounded=0;whiteSpace=wrap;html=1;" parent="1" vertex="1">
          <mxGeometry x="-276" y="2172" width="84" height="21" as="geometry" />
        </mxCell>
        <mxCell id="EJqy8XR-NQ5soKW403JW-38" value="struct B* b" style="rounded=0;whiteSpace=wrap;html=1;" parent="1" vertex="1">
          <mxGeometry x="-276" y="2193" width="84" height="21" as="geometry" />
        </mxCell>
        <mxCell id="EJqy8XR-NQ5soKW403JW-39" value="" style="rounded=0;whiteSpace=wrap;html=1;" parent="1" vertex="1">
          <mxGeometry x="-276" y="2214" width="84" height="125" as="geometry" />
        </mxCell>
        <mxCell id="EJqy8XR-NQ5soKW403JW-40" value="" style="rounded=0;whiteSpace=wrap;html=1;" parent="1" vertex="1">
          <mxGeometry x="-130" y="2172" width="84" height="21" as="geometry" />
        </mxCell>
        <mxCell id="EJqy8XR-NQ5soKW403JW-41" value="" style="rounded=0;whiteSpace=wrap;html=1;" parent="1" vertex="1">
          <mxGeometry x="-130" y="2193" width="84" height="21" as="geometry" />
        </mxCell>
        <mxCell id="EJqy8XR-NQ5soKW403JW-42" value="" style="rounded=0;whiteSpace=wrap;html=1;" parent="1" vertex="1">
          <mxGeometry x="-130" y="2214" width="84" height="21" as="geometry" />
        </mxCell>
        <mxCell id="EJqy8XR-NQ5soKW403JW-43" value="" style="rounded=0;whiteSpace=wrap;html=1;" parent="1" vertex="1">
          <mxGeometry x="-130" y="2235" width="84" height="21" as="geometry" />
        </mxCell>
        <mxCell id="EJqy8XR-NQ5soKW403JW-44" value="" style="rounded=0;whiteSpace=wrap;html=1;" parent="1" vertex="1">
          <mxGeometry x="10" y="2172" width="84" height="21" as="geometry" />
        </mxCell>
        <mxCell id="EJqy8XR-NQ5soKW403JW-45" value="" style="rounded=0;whiteSpace=wrap;html=1;" parent="1" vertex="1">
          <mxGeometry x="10" y="2193" width="84" height="21" as="geometry" />
        </mxCell>
        <mxCell id="EJqy8XR-NQ5soKW403JW-46" value="" style="rounded=0;whiteSpace=wrap;html=1;" parent="1" vertex="1">
          <mxGeometry x="10" y="2214" width="84" height="21" as="geometry" />
        </mxCell>
        <mxCell id="EJqy8XR-NQ5soKW403JW-47" value="" style="rounded=0;whiteSpace=wrap;html=1;" parent="1" vertex="1">
          <mxGeometry x="10" y="2235" width="84" height="21" as="geometry" />
        </mxCell>
        <UserObject label="64 字节大小&lt;br&gt;首部有虚表&amp;nbsp;" placeholders="1" name="Variable" id="EJqy8XR-NQ5soKW403JW-48">
          <mxCell style="text;html=1;strokeColor=none;fillColor=none;align=center;verticalAlign=middle;whiteSpace=wrap;overflow=hidden;" parent="1" vertex="1">
            <mxGeometry x="-274" y="2130" width="80" height="33" as="geometry" />
          </mxCell>
        </UserObject>
        <UserObject label="48 字节大小&lt;br&gt;无虚表" placeholders="1" name="Variable" id="EJqy8XR-NQ5soKW403JW-49">
          <mxCell style="text;html=1;strokeColor=none;fillColor=none;align=center;verticalAlign=middle;whiteSpace=wrap;overflow=hidden;" parent="1" vertex="1">
            <mxGeometry x="-126" y="2130" width="80" height="33" as="geometry" />
          </mxCell>
        </UserObject>
        <UserObject label="32 字节大小&lt;br&gt;无虚表" placeholders="1" name="Variable" id="EJqy8XR-NQ5soKW403JW-50">
          <mxCell style="text;html=1;strokeColor=none;fillColor=none;align=center;verticalAlign=middle;whiteSpace=wrap;overflow=hidden;" parent="1" vertex="1">
            <mxGeometry x="12" y="2130" width="80" height="33" as="geometry" />
          </mxCell>
        </UserObject>
        <mxCell id="EJqy8XR-NQ5soKW403JW-51" value="" style="rounded=0;whiteSpace=wrap;html=1;" parent="1" vertex="1">
          <mxGeometry x="-276" y="2277" width="84" height="21" as="geometry" />
        </mxCell>
        <mxCell id="EJqy8XR-NQ5soKW403JW-52" value="" style="rounded=0;whiteSpace=wrap;html=1;" parent="1" vertex="1">
          <mxGeometry x="-276" y="2298" width="84" height="21" as="geometry" />
        </mxCell>
        <mxCell id="EJqy8XR-NQ5soKW403JW-53" value="" style="rounded=0;whiteSpace=wrap;html=1;" parent="1" vertex="1">
          <mxGeometry x="-276" y="2214" width="84" height="21" as="geometry" />
        </mxCell>
        <mxCell id="EJqy8XR-NQ5soKW403JW-54" value="" style="rounded=0;whiteSpace=wrap;html=1;" parent="1" vertex="1">
          <mxGeometry x="-276" y="2235" width="84" height="21" as="geometry" />
        </mxCell>
        <mxCell id="EJqy8XR-NQ5soKW403JW-55" value="" style="rounded=0;whiteSpace=wrap;html=1;" parent="1" vertex="1">
          <mxGeometry x="-276" y="2256" width="84" height="21" as="geometry" />
        </mxCell>
        <mxCell id="EJqy8XR-NQ5soKW403JW-56" value="" style="rounded=0;whiteSpace=wrap;html=1;" parent="1" vertex="1">
          <mxGeometry x="-130" y="2533" width="84" height="21" as="geometry" />
        </mxCell>
        <mxCell id="EJqy8XR-NQ5soKW403JW-57" value="" style="rounded=0;whiteSpace=wrap;html=1;" parent="1" vertex="1">
          <mxGeometry x="-130" y="2554" width="84" height="21" as="geometry" />
        </mxCell>
        <mxCell id="EJqy8XR-NQ5soKW403JW-58" value="vtable for A" style="rounded=0;whiteSpace=wrap;html=1;" parent="1" vertex="1">
          <mxGeometry x="-276" y="2449" width="84" height="21" as="geometry" />
        </mxCell>
        <mxCell id="EJqy8XR-NQ5soKW403JW-77" style="edgeStyle=orthogonalEdgeStyle;rounded=0;orthogonalLoop=1;jettySize=auto;html=1;" parent="1" source="EJqy8XR-NQ5soKW403JW-59" target="EJqy8XR-NQ5soKW403JW-61" edge="1">
          <mxGeometry relative="1" as="geometry" />
        </mxCell>
        <mxCell id="EJqy8XR-NQ5soKW403JW-59" value="&lt;font color=&quot;#ff0000&quot;&gt;struct B* b&lt;/font&gt;" style="rounded=0;whiteSpace=wrap;html=1;" parent="1" vertex="1">
          <mxGeometry x="-276" y="2470" width="84" height="21" as="geometry" />
        </mxCell>
        <mxCell id="EJqy8XR-NQ5soKW403JW-60" value="" style="rounded=0;whiteSpace=wrap;html=1;" parent="1" vertex="1">
          <mxGeometry x="-276" y="2491" width="84" height="125" as="geometry" />
        </mxCell>
        <mxCell id="EJqy8XR-NQ5soKW403JW-61" value="" style="rounded=0;whiteSpace=wrap;html=1;" parent="1" vertex="1">
          <mxGeometry x="-130" y="2449" width="84" height="21" as="geometry" />
        </mxCell>
        <mxCell id="EJqy8XR-NQ5soKW403JW-62" value="" style="rounded=0;whiteSpace=wrap;html=1;" parent="1" vertex="1">
          <mxGeometry x="-130" y="2470" width="84" height="21" as="geometry" />
        </mxCell>
        <mxCell id="EJqy8XR-NQ5soKW403JW-63" value="" style="rounded=0;whiteSpace=wrap;html=1;" parent="1" vertex="1">
          <mxGeometry x="-130" y="2491" width="84" height="21" as="geometry" />
        </mxCell>
        <mxCell id="EJqy8XR-NQ5soKW403JW-64" value="" style="rounded=0;whiteSpace=wrap;html=1;" parent="1" vertex="1">
          <mxGeometry x="-130" y="2512" width="84" height="21" as="geometry" />
        </mxCell>
        <mxCell id="EJqy8XR-NQ5soKW403JW-65" value="" style="rounded=0;whiteSpace=wrap;html=1;" parent="1" vertex="1">
          <mxGeometry x="10" y="2449" width="84" height="21" as="geometry" />
        </mxCell>
        <mxCell id="EJqy8XR-NQ5soKW403JW-66" value="" style="rounded=0;whiteSpace=wrap;html=1;" parent="1" vertex="1">
          <mxGeometry x="10" y="2470" width="84" height="21" as="geometry" />
        </mxCell>
        <mxCell id="EJqy8XR-NQ5soKW403JW-67" value="" style="rounded=0;whiteSpace=wrap;html=1;" parent="1" vertex="1">
          <mxGeometry x="10" y="2491" width="84" height="21" as="geometry" />
        </mxCell>
        <mxCell id="EJqy8XR-NQ5soKW403JW-68" value="" style="rounded=0;whiteSpace=wrap;html=1;" parent="1" vertex="1">
          <mxGeometry x="10" y="2512" width="84" height="21" as="geometry" />
        </mxCell>
        <UserObject label="A object&amp;nbsp;" placeholders="1" name="Variable" id="EJqy8XR-NQ5soKW403JW-69">
          <mxCell style="text;html=1;strokeColor=none;fillColor=none;align=center;verticalAlign=middle;whiteSpace=wrap;overflow=hidden;" parent="1" vertex="1">
            <mxGeometry x="-274" y="2407" width="80" height="33" as="geometry" />
          </mxCell>
        </UserObject>
        <UserObject label="&lt;font color=&quot;#ff0000&quot;&gt;B object&lt;/font&gt;" placeholders="1" name="Variable" id="EJqy8XR-NQ5soKW403JW-70">
          <mxCell style="text;html=1;strokeColor=none;fillColor=none;align=center;verticalAlign=middle;whiteSpace=wrap;overflow=hidden;" parent="1" vertex="1">
            <mxGeometry x="-126" y="2407" width="80" height="33" as="geometry" />
          </mxCell>
        </UserObject>
        <UserObject label="32 字节大小&lt;br&gt;无虚表" placeholders="1" name="Variable" id="EJqy8XR-NQ5soKW403JW-71">
          <mxCell style="text;html=1;strokeColor=none;fillColor=none;align=center;verticalAlign=middle;whiteSpace=wrap;overflow=hidden;" parent="1" vertex="1">
            <mxGeometry x="12" y="2407" width="80" height="33" as="geometry" />
          </mxCell>
        </UserObject>
        <mxCell id="EJqy8XR-NQ5soKW403JW-72" value="" style="rounded=0;whiteSpace=wrap;html=1;" parent="1" vertex="1">
          <mxGeometry x="-276" y="2554" width="84" height="21" as="geometry" />
        </mxCell>
        <mxCell id="EJqy8XR-NQ5soKW403JW-73" value="" style="rounded=0;whiteSpace=wrap;html=1;" parent="1" vertex="1">
          <mxGeometry x="-276" y="2575" width="84" height="21" as="geometry" />
        </mxCell>
        <mxCell id="EJqy8XR-NQ5soKW403JW-74" value="" style="rounded=0;whiteSpace=wrap;html=1;" parent="1" vertex="1">
          <mxGeometry x="-276" y="2491" width="84" height="21" as="geometry" />
        </mxCell>
        <mxCell id="EJqy8XR-NQ5soKW403JW-75" value="" style="rounded=0;whiteSpace=wrap;html=1;" parent="1" vertex="1">
          <mxGeometry x="-276" y="2512" width="84" height="21" as="geometry" />
        </mxCell>
        <mxCell id="EJqy8XR-NQ5soKW403JW-76" value="" style="rounded=0;whiteSpace=wrap;html=1;" parent="1" vertex="1">
          <mxGeometry x="-276" y="2533" width="84" height="21" as="geometry" />
        </mxCell>
        <mxCell id="EJqy8XR-NQ5soKW403JW-78" value="" style="rounded=0;whiteSpace=wrap;html=1;" parent="1" vertex="1">
          <mxGeometry x="-130" y="2836" width="84" height="21" as="geometry" />
        </mxCell>
        <mxCell id="EJqy8XR-NQ5soKW403JW-79" value="" style="rounded=0;whiteSpace=wrap;html=1;" parent="1" vertex="1">
          <mxGeometry x="-130" y="2857" width="84" height="21" as="geometry" />
        </mxCell>
        <mxCell id="EJqy8XR-NQ5soKW403JW-80" value="vtable for A" style="rounded=0;whiteSpace=wrap;html=1;" parent="1" vertex="1">
          <mxGeometry x="-276" y="2752" width="84" height="21" as="geometry" />
        </mxCell>
        <mxCell id="EJqy8XR-NQ5soKW403JW-81" style="edgeStyle=orthogonalEdgeStyle;rounded=0;orthogonalLoop=1;jettySize=auto;html=1;" parent="1" source="EJqy8XR-NQ5soKW403JW-82" target="EJqy8XR-NQ5soKW403JW-84" edge="1">
          <mxGeometry relative="1" as="geometry" />
        </mxCell>
        <mxCell id="EJqy8XR-NQ5soKW403JW-82" value="struct B* b" style="rounded=0;whiteSpace=wrap;html=1;" parent="1" vertex="1">
          <mxGeometry x="-276" y="2773" width="84" height="21" as="geometry" />
        </mxCell>
        <mxCell id="EJqy8XR-NQ5soKW403JW-83" value="" style="rounded=0;whiteSpace=wrap;html=1;" parent="1" vertex="1">
          <mxGeometry x="-276" y="2794" width="84" height="125" as="geometry" />
        </mxCell>
        <mxCell id="EJqy8XR-NQ5soKW403JW-100" style="edgeStyle=orthogonalEdgeStyle;rounded=0;orthogonalLoop=1;jettySize=auto;html=1;" parent="1" source="EJqy8XR-NQ5soKW403JW-84" target="EJqy8XR-NQ5soKW403JW-88" edge="1">
          <mxGeometry relative="1" as="geometry" />
        </mxCell>
        <mxCell id="EJqy8XR-NQ5soKW403JW-84" value="&lt;font color=&quot;#ff0000&quot;&gt;struct C* c&lt;/font&gt;" style="rounded=0;whiteSpace=wrap;html=1;" parent="1" vertex="1">
          <mxGeometry x="-130" y="2752" width="84" height="21" as="geometry" />
        </mxCell>
        <mxCell id="EJqy8XR-NQ5soKW403JW-85" value="" style="rounded=0;whiteSpace=wrap;html=1;" parent="1" vertex="1">
          <mxGeometry x="-130" y="2773" width="84" height="21" as="geometry" />
        </mxCell>
        <mxCell id="EJqy8XR-NQ5soKW403JW-86" value="" style="rounded=0;whiteSpace=wrap;html=1;" parent="1" vertex="1">
          <mxGeometry x="-130" y="2794" width="84" height="21" as="geometry" />
        </mxCell>
        <mxCell id="EJqy8XR-NQ5soKW403JW-87" value="" style="rounded=0;whiteSpace=wrap;html=1;" parent="1" vertex="1">
          <mxGeometry x="-130" y="2815" width="84" height="21" as="geometry" />
        </mxCell>
        <mxCell id="EJqy8XR-NQ5soKW403JW-88" value="" style="rounded=0;whiteSpace=wrap;html=1;" parent="1" vertex="1">
          <mxGeometry x="10" y="2752" width="84" height="21" as="geometry" />
        </mxCell>
        <mxCell id="EJqy8XR-NQ5soKW403JW-89" value="" style="rounded=0;whiteSpace=wrap;html=1;" parent="1" vertex="1">
          <mxGeometry x="10" y="2773" width="84" height="21" as="geometry" />
        </mxCell>
        <mxCell id="EJqy8XR-NQ5soKW403JW-90" value="" style="rounded=0;whiteSpace=wrap;html=1;" parent="1" vertex="1">
          <mxGeometry x="10" y="2794" width="84" height="21" as="geometry" />
        </mxCell>
        <mxCell id="EJqy8XR-NQ5soKW403JW-91" value="" style="rounded=0;whiteSpace=wrap;html=1;" parent="1" vertex="1">
          <mxGeometry x="10" y="2815" width="84" height="21" as="geometry" />
        </mxCell>
        <UserObject label="A object&amp;nbsp;" placeholders="1" name="Variable" id="EJqy8XR-NQ5soKW403JW-92">
          <mxCell style="text;html=1;strokeColor=none;fillColor=none;align=center;verticalAlign=middle;whiteSpace=wrap;overflow=hidden;" parent="1" vertex="1">
            <mxGeometry x="-274" y="2710" width="80" height="33" as="geometry" />
          </mxCell>
        </UserObject>
        <UserObject label="B object" placeholders="1" name="Variable" id="EJqy8XR-NQ5soKW403JW-93">
          <mxCell style="text;html=1;strokeColor=none;fillColor=none;align=center;verticalAlign=middle;whiteSpace=wrap;overflow=hidden;" parent="1" vertex="1">
            <mxGeometry x="-126" y="2710" width="80" height="33" as="geometry" />
          </mxCell>
        </UserObject>
        <UserObject label="&lt;font color=&quot;#ff0000&quot;&gt;C object&lt;/font&gt;" placeholders="1" name="Variable" id="EJqy8XR-NQ5soKW403JW-94">
          <mxCell style="text;html=1;strokeColor=none;fillColor=none;align=center;verticalAlign=middle;whiteSpace=wrap;overflow=hidden;" parent="1" vertex="1">
            <mxGeometry x="12" y="2710" width="80" height="33" as="geometry" />
          </mxCell>
        </UserObject>
        <mxCell id="EJqy8XR-NQ5soKW403JW-95" value="" style="rounded=0;whiteSpace=wrap;html=1;" parent="1" vertex="1">
          <mxGeometry x="-276" y="2857" width="84" height="21" as="geometry" />
        </mxCell>
        <mxCell id="EJqy8XR-NQ5soKW403JW-96" value="" style="rounded=0;whiteSpace=wrap;html=1;" parent="1" vertex="1">
          <mxGeometry x="-276" y="2878" width="84" height="21" as="geometry" />
        </mxCell>
        <mxCell id="EJqy8XR-NQ5soKW403JW-97" value="" style="rounded=0;whiteSpace=wrap;html=1;" parent="1" vertex="1">
          <mxGeometry x="-276" y="2794" width="84" height="21" as="geometry" />
        </mxCell>
        <mxCell id="EJqy8XR-NQ5soKW403JW-98" value="" style="rounded=0;whiteSpace=wrap;html=1;" parent="1" vertex="1">
          <mxGeometry x="-276" y="2815" width="84" height="21" as="geometry" />
        </mxCell>
        <mxCell id="EJqy8XR-NQ5soKW403JW-99" value="" style="rounded=0;whiteSpace=wrap;html=1;" parent="1" vertex="1">
          <mxGeometry x="-276" y="2836" width="84" height="21" as="geometry" />
        </mxCell>
        <mxCell id="fgw2VKMl7piZNvdP1vkD-1" value="&lt;b&gt;arena 0&lt;br&gt;&lt;/b&gt;" style="rounded=0;whiteSpace=wrap;html=1;" parent="1" vertex="1">
          <mxGeometry x="-2526" y="459" width="62" height="41" as="geometry" />
        </mxCell>
        <mxCell id="fgw2VKMl7piZNvdP1vkD-2" value="&lt;b&gt;arena 1&lt;br&gt;&lt;/b&gt;" style="rounded=0;whiteSpace=wrap;html=1;" parent="1" vertex="1">
          <mxGeometry x="-2464" y="459" width="62" height="41" as="geometry" />
        </mxCell>
        <mxCell id="fgw2VKMl7piZNvdP1vkD-3" value="&lt;b&gt;arena 2&lt;br&gt;&lt;/b&gt;" style="rounded=0;whiteSpace=wrap;html=1;" parent="1" vertex="1">
          <mxGeometry x="-2404" y="459" width="62" height="41" as="geometry" />
        </mxCell>
        <mxCell id="fgw2VKMl7piZNvdP1vkD-4" value="&lt;b&gt;arena 3&lt;br&gt;&lt;/b&gt;" style="rounded=0;whiteSpace=wrap;html=1;" parent="1" vertex="1">
          <mxGeometry x="-2342" y="459" width="62" height="41" as="geometry" />
        </mxCell>
        <mxCell id="fgw2VKMl7piZNvdP1vkD-5" value="&lt;b&gt;arena 4&lt;br&gt;&lt;/b&gt;" style="rounded=0;whiteSpace=wrap;html=1;" parent="1" vertex="1">
          <mxGeometry x="-2280" y="459" width="62" height="41" as="geometry" />
        </mxCell>
        <mxCell id="fgw2VKMl7piZNvdP1vkD-6" value="&lt;b&gt;arena 5&lt;br&gt;&lt;/b&gt;" style="rounded=0;whiteSpace=wrap;html=1;" parent="1" vertex="1">
          <mxGeometry x="-2218" y="459" width="62" height="41" as="geometry" />
        </mxCell>
        <mxCell id="fgw2VKMl7piZNvdP1vkD-7" value="&lt;b&gt;arena 6&lt;br&gt;&lt;/b&gt;" style="rounded=0;whiteSpace=wrap;html=1;" parent="1" vertex="1">
          <mxGeometry x="-2158" y="459" width="62" height="41" as="geometry" />
        </mxCell>
        <mxCell id="fgw2VKMl7piZNvdP1vkD-8" value="&lt;b&gt;arena 7&lt;br&gt;&lt;/b&gt;" style="rounded=0;whiteSpace=wrap;html=1;" parent="1" vertex="1">
          <mxGeometry x="-2096" y="459" width="62" height="41" as="geometry" />
        </mxCell>
        <mxCell id="fgw2VKMl7piZNvdP1vkD-9" value="256 KB" style="rounded=0;whiteSpace=wrap;html=1;" parent="1" vertex="1">
          <mxGeometry x="-2526" y="552" width="490" height="328" as="geometry" />
        </mxCell>
        <mxCell id="fgw2VKMl7piZNvdP1vkD-10" style="edgeStyle=orthogonalEdgeStyle;rounded=0;orthogonalLoop=1;jettySize=auto;html=1;entryX=0.52;entryY=-0.07;entryDx=0;entryDy=0;entryPerimeter=0;" parent="1" edge="1">
          <mxGeometry relative="1" as="geometry">
            <mxPoint x="-2311.29" y="500" as="sourcePoint" />
            <mxPoint x="-2311.29" y="544" as="targetPoint" />
          </mxGeometry>
        </mxCell>
        <mxCell id="fgw2VKMl7piZNvdP1vkD-11" value="&lt;b&gt;pool 0&lt;br&gt;&lt;/b&gt;" style="rounded=0;whiteSpace=wrap;html=1;" parent="1" vertex="1">
          <mxGeometry x="-2526" y="552" width="62" height="41" as="geometry" />
        </mxCell>
        <mxCell id="fgw2VKMl7piZNvdP1vkD-12" value="&lt;b&gt;pool 1&lt;br&gt;&lt;/b&gt;" style="rounded=0;whiteSpace=wrap;html=1;" parent="1" vertex="1">
          <mxGeometry x="-2467" y="552" width="62" height="41" as="geometry" />
        </mxCell>
        <mxCell id="fgw2VKMl7piZNvdP1vkD-13" value="&lt;b&gt;pool 2&lt;br&gt;&lt;/b&gt;" style="rounded=0;whiteSpace=wrap;html=1;" parent="1" vertex="1">
          <mxGeometry x="-2405" y="552" width="62" height="41" as="geometry" />
        </mxCell>
        <mxCell id="fgw2VKMl7piZNvdP1vkD-14" value="&lt;b&gt;pool 3&lt;br&gt;&lt;/b&gt;" style="rounded=0;whiteSpace=wrap;html=1;" parent="1" vertex="1">
          <mxGeometry x="-2343" y="552" width="62" height="41" as="geometry" />
        </mxCell>
        <mxCell id="fgw2VKMl7piZNvdP1vkD-15" value="&lt;b&gt;pool 4&lt;br&gt;&lt;/b&gt;" style="rounded=0;whiteSpace=wrap;html=1;" parent="1" vertex="1">
          <mxGeometry x="-2281" y="552" width="62" height="41" as="geometry" />
        </mxCell>
        <mxCell id="fgw2VKMl7piZNvdP1vkD-16" value="&lt;b&gt;pool 5&lt;br&gt;&lt;/b&gt;" style="rounded=0;whiteSpace=wrap;html=1;" parent="1" vertex="1">
          <mxGeometry x="-2222" y="552" width="62" height="41" as="geometry" />
        </mxCell>
        <mxCell id="fgw2VKMl7piZNvdP1vkD-17" value="&lt;b&gt;pool 6&lt;br&gt;&lt;/b&gt;" style="rounded=0;whiteSpace=wrap;html=1;" parent="1" vertex="1">
          <mxGeometry x="-2160" y="552" width="62" height="41" as="geometry" />
        </mxCell>
        <mxCell id="fgw2VKMl7piZNvdP1vkD-18" value="&lt;b&gt;pool 7&lt;br&gt;&lt;/b&gt;" style="rounded=0;whiteSpace=wrap;html=1;" parent="1" vertex="1">
          <mxGeometry x="-2098" y="552" width="62" height="41" as="geometry" />
        </mxCell>
        <mxCell id="fgw2VKMl7piZNvdP1vkD-19" value="&lt;b&gt;pool&amp;nbsp;&lt;br&gt;&lt;/b&gt;" style="rounded=0;whiteSpace=wrap;html=1;" parent="1" vertex="1">
          <mxGeometry x="-2526" y="593" width="62" height="41" as="geometry" />
        </mxCell>
        <mxCell id="fgw2VKMl7piZNvdP1vkD-20" value="&lt;b&gt;pool&amp;nbsp;&lt;br&gt;&lt;/b&gt;" style="rounded=0;whiteSpace=wrap;html=1;" parent="1" vertex="1">
          <mxGeometry x="-2467" y="593" width="62" height="41" as="geometry" />
        </mxCell>
        <mxCell id="fgw2VKMl7piZNvdP1vkD-21" value="&lt;b&gt;pool&amp;nbsp;&lt;br&gt;&lt;/b&gt;" style="rounded=0;whiteSpace=wrap;html=1;" parent="1" vertex="1">
          <mxGeometry x="-2405" y="593" width="62" height="41" as="geometry" />
        </mxCell>
        <mxCell id="fgw2VKMl7piZNvdP1vkD-22" value="&lt;b&gt;pool&amp;nbsp;&lt;br&gt;&lt;/b&gt;" style="rounded=0;whiteSpace=wrap;html=1;" parent="1" vertex="1">
          <mxGeometry x="-2343" y="593" width="62" height="41" as="geometry" />
        </mxCell>
        <mxCell id="fgw2VKMl7piZNvdP1vkD-23" value="&lt;b&gt;pool&amp;nbsp;&lt;br&gt;&lt;/b&gt;" style="rounded=0;whiteSpace=wrap;html=1;" parent="1" vertex="1">
          <mxGeometry x="-2281" y="593" width="62" height="41" as="geometry" />
        </mxCell>
        <mxCell id="fgw2VKMl7piZNvdP1vkD-24" value="&lt;b&gt;pool&amp;nbsp;&lt;br&gt;&lt;/b&gt;" style="rounded=0;whiteSpace=wrap;html=1;" parent="1" vertex="1">
          <mxGeometry x="-2222" y="593" width="62" height="41" as="geometry" />
        </mxCell>
        <mxCell id="fgw2VKMl7piZNvdP1vkD-25" value="&lt;b&gt;pool&amp;nbsp;&lt;br&gt;&lt;/b&gt;" style="rounded=0;whiteSpace=wrap;html=1;" parent="1" vertex="1">
          <mxGeometry x="-2160" y="593" width="62" height="41" as="geometry" />
        </mxCell>
        <mxCell id="fgw2VKMl7piZNvdP1vkD-26" value="&lt;b&gt;pool&amp;nbsp;&lt;br&gt;&lt;/b&gt;" style="rounded=0;whiteSpace=wrap;html=1;" parent="1" vertex="1">
          <mxGeometry x="-2098" y="593" width="62" height="41" as="geometry" />
        </mxCell>
        <mxCell id="fgw2VKMl7piZNvdP1vkD-27" value="&lt;b&gt;pool&amp;nbsp;&lt;br&gt;&lt;/b&gt;" style="rounded=0;whiteSpace=wrap;html=1;" parent="1" vertex="1">
          <mxGeometry x="-2526" y="634" width="62" height="41" as="geometry" />
        </mxCell>
        <mxCell id="fgw2VKMl7piZNvdP1vkD-28" value="&lt;b&gt;pool&amp;nbsp;&lt;br&gt;&lt;/b&gt;" style="rounded=0;whiteSpace=wrap;html=1;" parent="1" vertex="1">
          <mxGeometry x="-2467" y="634" width="62" height="41" as="geometry" />
        </mxCell>
        <mxCell id="fgw2VKMl7piZNvdP1vkD-29" value="&lt;b&gt;pool&amp;nbsp;&lt;br&gt;&lt;/b&gt;" style="rounded=0;whiteSpace=wrap;html=1;" parent="1" vertex="1">
          <mxGeometry x="-2405" y="634" width="62" height="41" as="geometry" />
        </mxCell>
        <mxCell id="fgw2VKMl7piZNvdP1vkD-30" value="&lt;b&gt;pool&amp;nbsp;&lt;br&gt;&lt;/b&gt;" style="rounded=0;whiteSpace=wrap;html=1;" parent="1" vertex="1">
          <mxGeometry x="-2343" y="634" width="62" height="41" as="geometry" />
        </mxCell>
        <mxCell id="fgw2VKMl7piZNvdP1vkD-31" value="&lt;b&gt;pool&amp;nbsp;&lt;br&gt;&lt;/b&gt;" style="rounded=0;whiteSpace=wrap;html=1;" parent="1" vertex="1">
          <mxGeometry x="-2281" y="634" width="62" height="41" as="geometry" />
        </mxCell>
        <mxCell id="fgw2VKMl7piZNvdP1vkD-32" value="&lt;b&gt;pool&amp;nbsp;&lt;br&gt;&lt;/b&gt;" style="rounded=0;whiteSpace=wrap;html=1;" parent="1" vertex="1">
          <mxGeometry x="-2222" y="634" width="62" height="41" as="geometry" />
        </mxCell>
        <mxCell id="fgw2VKMl7piZNvdP1vkD-33" value="&lt;b&gt;pool&amp;nbsp;&lt;br&gt;&lt;/b&gt;" style="rounded=0;whiteSpace=wrap;html=1;" parent="1" vertex="1">
          <mxGeometry x="-2160" y="634" width="62" height="41" as="geometry" />
        </mxCell>
        <mxCell id="fgw2VKMl7piZNvdP1vkD-34" value="&lt;b&gt;pool&amp;nbsp;&lt;br&gt;&lt;/b&gt;" style="rounded=0;whiteSpace=wrap;html=1;" parent="1" vertex="1">
          <mxGeometry x="-2098" y="634" width="62" height="41" as="geometry" />
        </mxCell>
        <mxCell id="fgw2VKMl7piZNvdP1vkD-35" value="&lt;b&gt;pool&amp;nbsp;&lt;br&gt;&lt;/b&gt;" style="rounded=0;whiteSpace=wrap;html=1;" parent="1" vertex="1">
          <mxGeometry x="-2526" y="675" width="62" height="41" as="geometry" />
        </mxCell>
        <mxCell id="fgw2VKMl7piZNvdP1vkD-36" value="&lt;b&gt;pool&amp;nbsp;&lt;br&gt;&lt;/b&gt;" style="rounded=0;whiteSpace=wrap;html=1;" parent="1" vertex="1">
          <mxGeometry x="-2467" y="675" width="62" height="41" as="geometry" />
        </mxCell>
        <mxCell id="fgw2VKMl7piZNvdP1vkD-37" value="&lt;b&gt;pool&amp;nbsp;&lt;br&gt;&lt;/b&gt;" style="rounded=0;whiteSpace=wrap;html=1;" parent="1" vertex="1">
          <mxGeometry x="-2405" y="675" width="62" height="41" as="geometry" />
        </mxCell>
        <mxCell id="fgw2VKMl7piZNvdP1vkD-38" value="&lt;b&gt;pool&amp;nbsp;&lt;br&gt;&lt;/b&gt;" style="rounded=0;whiteSpace=wrap;html=1;" parent="1" vertex="1">
          <mxGeometry x="-2343" y="675" width="62" height="41" as="geometry" />
        </mxCell>
        <mxCell id="fgw2VKMl7piZNvdP1vkD-39" value="&lt;b&gt;pool&amp;nbsp;&lt;br&gt;&lt;/b&gt;" style="rounded=0;whiteSpace=wrap;html=1;" parent="1" vertex="1">
          <mxGeometry x="-2281" y="675" width="62" height="41" as="geometry" />
        </mxCell>
        <mxCell id="fgw2VKMl7piZNvdP1vkD-40" value="&lt;b&gt;pool&amp;nbsp;&lt;br&gt;&lt;/b&gt;" style="rounded=0;whiteSpace=wrap;html=1;" parent="1" vertex="1">
          <mxGeometry x="-2222" y="675" width="62" height="41" as="geometry" />
        </mxCell>
        <mxCell id="fgw2VKMl7piZNvdP1vkD-41" value="&lt;b&gt;pool&amp;nbsp;&lt;br&gt;&lt;/b&gt;" style="rounded=0;whiteSpace=wrap;html=1;" parent="1" vertex="1">
          <mxGeometry x="-2160" y="675" width="62" height="41" as="geometry" />
        </mxCell>
        <mxCell id="fgw2VKMl7piZNvdP1vkD-42" value="&lt;b&gt;pool&amp;nbsp;&lt;br&gt;&lt;/b&gt;" style="rounded=0;whiteSpace=wrap;html=1;" parent="1" vertex="1">
          <mxGeometry x="-2098" y="675" width="62" height="41" as="geometry" />
        </mxCell>
        <mxCell id="fgw2VKMl7piZNvdP1vkD-43" value="&lt;b&gt;pool&amp;nbsp;&lt;br&gt;&lt;/b&gt;" style="rounded=0;whiteSpace=wrap;html=1;" parent="1" vertex="1">
          <mxGeometry x="-2526" y="716" width="62" height="41" as="geometry" />
        </mxCell>
        <mxCell id="fgw2VKMl7piZNvdP1vkD-44" value="&lt;b&gt;pool&amp;nbsp;&lt;br&gt;&lt;/b&gt;" style="rounded=0;whiteSpace=wrap;html=1;" parent="1" vertex="1">
          <mxGeometry x="-2467" y="716" width="62" height="41" as="geometry" />
        </mxCell>
        <mxCell id="fgw2VKMl7piZNvdP1vkD-45" value="&lt;b&gt;pool&amp;nbsp;&lt;br&gt;&lt;/b&gt;" style="rounded=0;whiteSpace=wrap;html=1;" parent="1" vertex="1">
          <mxGeometry x="-2405" y="716" width="62" height="41" as="geometry" />
        </mxCell>
        <mxCell id="fgw2VKMl7piZNvdP1vkD-46" value="&lt;b&gt;pool&amp;nbsp;&lt;br&gt;&lt;/b&gt;" style="rounded=0;whiteSpace=wrap;html=1;" parent="1" vertex="1">
          <mxGeometry x="-2343" y="716" width="62" height="41" as="geometry" />
        </mxCell>
        <mxCell id="fgw2VKMl7piZNvdP1vkD-47" value="&lt;b&gt;pool&amp;nbsp;&lt;br&gt;&lt;/b&gt;" style="rounded=0;whiteSpace=wrap;html=1;" parent="1" vertex="1">
          <mxGeometry x="-2281" y="716" width="62" height="41" as="geometry" />
        </mxCell>
        <mxCell id="fgw2VKMl7piZNvdP1vkD-48" value="&lt;b&gt;pool&amp;nbsp;&lt;br&gt;&lt;/b&gt;" style="rounded=0;whiteSpace=wrap;html=1;" parent="1" vertex="1">
          <mxGeometry x="-2222" y="716" width="62" height="41" as="geometry" />
        </mxCell>
        <mxCell id="fgw2VKMl7piZNvdP1vkD-49" value="&lt;b&gt;pool&amp;nbsp;&lt;br&gt;&lt;/b&gt;" style="rounded=0;whiteSpace=wrap;html=1;" parent="1" vertex="1">
          <mxGeometry x="-2160" y="716" width="62" height="41" as="geometry" />
        </mxCell>
        <mxCell id="fgw2VKMl7piZNvdP1vkD-50" value="&lt;b&gt;pool&amp;nbsp;&lt;br&gt;&lt;/b&gt;" style="rounded=0;whiteSpace=wrap;html=1;" parent="1" vertex="1">
          <mxGeometry x="-2098" y="716" width="62" height="41" as="geometry" />
        </mxCell>
        <mxCell id="fgw2VKMl7piZNvdP1vkD-51" value="&lt;b&gt;pool&amp;nbsp;&lt;br&gt;&lt;/b&gt;" style="rounded=0;whiteSpace=wrap;html=1;" parent="1" vertex="1">
          <mxGeometry x="-2526" y="757" width="62" height="41" as="geometry" />
        </mxCell>
        <mxCell id="fgw2VKMl7piZNvdP1vkD-52" value="&lt;b&gt;pool&amp;nbsp;&lt;br&gt;&lt;/b&gt;" style="rounded=0;whiteSpace=wrap;html=1;" parent="1" vertex="1">
          <mxGeometry x="-2467" y="757" width="62" height="41" as="geometry" />
        </mxCell>
        <mxCell id="fgw2VKMl7piZNvdP1vkD-53" value="&lt;b&gt;pool&amp;nbsp;&lt;br&gt;&lt;/b&gt;" style="rounded=0;whiteSpace=wrap;html=1;" parent="1" vertex="1">
          <mxGeometry x="-2405" y="757" width="62" height="41" as="geometry" />
        </mxCell>
        <mxCell id="fgw2VKMl7piZNvdP1vkD-54" value="&lt;b&gt;pool&amp;nbsp;&lt;br&gt;&lt;/b&gt;" style="rounded=0;whiteSpace=wrap;html=1;" parent="1" vertex="1">
          <mxGeometry x="-2343" y="757" width="62" height="41" as="geometry" />
        </mxCell>
        <mxCell id="fgw2VKMl7piZNvdP1vkD-55" value="&lt;b&gt;pool&amp;nbsp;&lt;br&gt;&lt;/b&gt;" style="rounded=0;whiteSpace=wrap;html=1;" parent="1" vertex="1">
          <mxGeometry x="-2281" y="757" width="62" height="41" as="geometry" />
        </mxCell>
        <mxCell id="fgw2VKMl7piZNvdP1vkD-56" value="&lt;b&gt;pool&amp;nbsp;&lt;br&gt;&lt;/b&gt;" style="rounded=0;whiteSpace=wrap;html=1;" parent="1" vertex="1">
          <mxGeometry x="-2222" y="757" width="62" height="41" as="geometry" />
        </mxCell>
        <mxCell id="fgw2VKMl7piZNvdP1vkD-57" value="&lt;b&gt;pool&amp;nbsp;&lt;br&gt;&lt;/b&gt;" style="rounded=0;whiteSpace=wrap;html=1;" parent="1" vertex="1">
          <mxGeometry x="-2160" y="757" width="62" height="41" as="geometry" />
        </mxCell>
        <mxCell id="fgw2VKMl7piZNvdP1vkD-58" value="&lt;b&gt;pool&amp;nbsp;&lt;br&gt;&lt;/b&gt;" style="rounded=0;whiteSpace=wrap;html=1;" parent="1" vertex="1">
          <mxGeometry x="-2098" y="757" width="62" height="41" as="geometry" />
        </mxCell>
        <mxCell id="fgw2VKMl7piZNvdP1vkD-59" value="&lt;b&gt;pool&amp;nbsp;&lt;br&gt;&lt;/b&gt;" style="rounded=0;whiteSpace=wrap;html=1;" parent="1" vertex="1">
          <mxGeometry x="-2526" y="798" width="62" height="41" as="geometry" />
        </mxCell>
        <mxCell id="fgw2VKMl7piZNvdP1vkD-60" value="&lt;b&gt;pool&amp;nbsp;&lt;br&gt;&lt;/b&gt;" style="rounded=0;whiteSpace=wrap;html=1;" parent="1" vertex="1">
          <mxGeometry x="-2467" y="798" width="62" height="41" as="geometry" />
        </mxCell>
        <mxCell id="fgw2VKMl7piZNvdP1vkD-61" value="&lt;b&gt;pool&amp;nbsp;&lt;br&gt;&lt;/b&gt;" style="rounded=0;whiteSpace=wrap;html=1;" parent="1" vertex="1">
          <mxGeometry x="-2405" y="798" width="62" height="41" as="geometry" />
        </mxCell>
        <mxCell id="fgw2VKMl7piZNvdP1vkD-62" value="&lt;b&gt;pool&amp;nbsp;&lt;br&gt;&lt;/b&gt;" style="rounded=0;whiteSpace=wrap;html=1;" parent="1" vertex="1">
          <mxGeometry x="-2343" y="798" width="62" height="41" as="geometry" />
        </mxCell>
        <mxCell id="fgw2VKMl7piZNvdP1vkD-63" value="&lt;b&gt;pool&amp;nbsp;&lt;br&gt;&lt;/b&gt;" style="rounded=0;whiteSpace=wrap;html=1;" parent="1" vertex="1">
          <mxGeometry x="-2281" y="798" width="62" height="41" as="geometry" />
        </mxCell>
        <mxCell id="fgw2VKMl7piZNvdP1vkD-64" value="&lt;b&gt;pool&amp;nbsp;&lt;br&gt;&lt;/b&gt;" style="rounded=0;whiteSpace=wrap;html=1;" parent="1" vertex="1">
          <mxGeometry x="-2222" y="798" width="62" height="41" as="geometry" />
        </mxCell>
        <mxCell id="fgw2VKMl7piZNvdP1vkD-65" value="&lt;b&gt;pool&amp;nbsp;&lt;br&gt;&lt;/b&gt;" style="rounded=0;whiteSpace=wrap;html=1;" parent="1" vertex="1">
          <mxGeometry x="-2160" y="798" width="62" height="41" as="geometry" />
        </mxCell>
        <mxCell id="fgw2VKMl7piZNvdP1vkD-66" value="&lt;b&gt;pool&amp;nbsp;&lt;br&gt;&lt;/b&gt;" style="rounded=0;whiteSpace=wrap;html=1;" parent="1" vertex="1">
          <mxGeometry x="-2098" y="798" width="62" height="41" as="geometry" />
        </mxCell>
        <mxCell id="fgw2VKMl7piZNvdP1vkD-67" value="&lt;b&gt;pool 56&lt;br&gt;&lt;/b&gt;" style="rounded=0;whiteSpace=wrap;html=1;" parent="1" vertex="1">
          <mxGeometry x="-2526" y="839" width="62" height="41" as="geometry" />
        </mxCell>
        <mxCell id="fgw2VKMl7piZNvdP1vkD-68" value="&lt;b&gt;pool 57&amp;nbsp;&lt;br&gt;&lt;/b&gt;" style="rounded=0;whiteSpace=wrap;html=1;" parent="1" vertex="1">
          <mxGeometry x="-2467" y="839" width="62" height="41" as="geometry" />
        </mxCell>
        <mxCell id="fgw2VKMl7piZNvdP1vkD-69" value="&lt;b&gt;pool 58&lt;br&gt;&lt;/b&gt;" style="rounded=0;whiteSpace=wrap;html=1;" parent="1" vertex="1">
          <mxGeometry x="-2405" y="839" width="62" height="41" as="geometry" />
        </mxCell>
        <mxCell id="fgw2VKMl7piZNvdP1vkD-70" value="&lt;b&gt;pool 59&lt;br&gt;&lt;/b&gt;" style="rounded=0;whiteSpace=wrap;html=1;" parent="1" vertex="1">
          <mxGeometry x="-2343" y="839" width="62" height="41" as="geometry" />
        </mxCell>
        <mxCell id="fgw2VKMl7piZNvdP1vkD-71" value="&lt;b&gt;pool 60&lt;br&gt;&lt;/b&gt;" style="rounded=0;whiteSpace=wrap;html=1;" parent="1" vertex="1">
          <mxGeometry x="-2281" y="839" width="62" height="41" as="geometry" />
        </mxCell>
        <mxCell id="fgw2VKMl7piZNvdP1vkD-72" value="&lt;b&gt;pool 61&amp;nbsp;&lt;br&gt;&lt;/b&gt;" style="rounded=0;whiteSpace=wrap;html=1;" parent="1" vertex="1">
          <mxGeometry x="-2222" y="839" width="62" height="41" as="geometry" />
        </mxCell>
        <mxCell id="fgw2VKMl7piZNvdP1vkD-73" value="&lt;b&gt;pool 62&lt;br&gt;&lt;/b&gt;" style="rounded=0;whiteSpace=wrap;html=1;" parent="1" vertex="1">
          <mxGeometry x="-2160" y="839" width="62" height="41" as="geometry" />
        </mxCell>
        <mxCell id="fgw2VKMl7piZNvdP1vkD-74" value="&lt;b&gt;pool 63&lt;br&gt;&lt;/b&gt;" style="rounded=0;whiteSpace=wrap;html=1;" parent="1" vertex="1">
          <mxGeometry x="-2098" y="839" width="62" height="41" as="geometry" />
        </mxCell>
        <mxCell id="fgw2VKMl7piZNvdP1vkD-75" value="4 KB pool" style="rounded=0;whiteSpace=wrap;html=1;" parent="1" vertex="1">
          <mxGeometry x="-1887" y="456" width="430" height="228" as="geometry" />
        </mxCell>
        <mxCell id="fgw2VKMl7piZNvdP1vkD-76" value="&lt;b&gt;pool_header&lt;br&gt;&lt;/b&gt;" style="rounded=0;whiteSpace=wrap;html=1;" parent="1" vertex="1">
          <mxGeometry x="-1887" y="456" width="72" height="38" as="geometry" />
        </mxCell>
        <mxCell id="fgw2VKMl7piZNvdP1vkD-77" value="&lt;b&gt;block 0&lt;br&gt;&lt;/b&gt;" style="rounded=0;whiteSpace=wrap;html=1;" parent="1" vertex="1">
          <mxGeometry x="-1815" y="456" width="72" height="38" as="geometry" />
        </mxCell>
        <mxCell id="fgw2VKMl7piZNvdP1vkD-78" value="&lt;b&gt;block 0&lt;br&gt;&lt;/b&gt;" style="rounded=0;whiteSpace=wrap;html=1;" parent="1" vertex="1">
          <mxGeometry x="-1743" y="456" width="72" height="38" as="geometry" />
        </mxCell>
        <mxCell id="fgw2VKMl7piZNvdP1vkD-79" value="&lt;b&gt;block 0&lt;br&gt;&lt;/b&gt;" style="rounded=0;whiteSpace=wrap;html=1;" parent="1" vertex="1">
          <mxGeometry x="-1671" y="456" width="72" height="38" as="geometry" />
        </mxCell>
        <mxCell id="fgw2VKMl7piZNvdP1vkD-80" value="&lt;b&gt;block 0&lt;br&gt;&lt;/b&gt;" style="rounded=0;whiteSpace=wrap;html=1;" parent="1" vertex="1">
          <mxGeometry x="-1601" y="456" width="72" height="38" as="geometry" />
        </mxCell>
        <mxCell id="fgw2VKMl7piZNvdP1vkD-81" value="&lt;b&gt;block 0&lt;br&gt;&lt;/b&gt;" style="rounded=0;whiteSpace=wrap;html=1;" parent="1" vertex="1">
          <mxGeometry x="-1529" y="456" width="72" height="38" as="geometry" />
        </mxCell>
        <mxCell id="fgw2VKMl7piZNvdP1vkD-82" value="&lt;b&gt;block&lt;br&gt;&lt;/b&gt;" style="rounded=0;whiteSpace=wrap;html=1;" parent="1" vertex="1">
          <mxGeometry x="-1887" y="494" width="72" height="38" as="geometry" />
        </mxCell>
        <mxCell id="fgw2VKMl7piZNvdP1vkD-83" value="&lt;b style=&quot;border-color: var(--border-color);&quot;&gt;block&lt;/b&gt;&lt;b&gt;&lt;br&gt;&lt;/b&gt;" style="rounded=0;whiteSpace=wrap;html=1;" parent="1" vertex="1">
          <mxGeometry x="-1815" y="494" width="72" height="38" as="geometry" />
        </mxCell>
        <mxCell id="fgw2VKMl7piZNvdP1vkD-84" value="&lt;b style=&quot;border-color: var(--border-color);&quot;&gt;block&lt;/b&gt;&lt;b&gt;&lt;br&gt;&lt;/b&gt;" style="rounded=0;whiteSpace=wrap;html=1;" parent="1" vertex="1">
          <mxGeometry x="-1743" y="494" width="72" height="38" as="geometry" />
        </mxCell>
        <mxCell id="fgw2VKMl7piZNvdP1vkD-85" value="&lt;b style=&quot;border-color: var(--border-color);&quot;&gt;block&lt;/b&gt;&lt;b&gt;&lt;br&gt;&lt;/b&gt;" style="rounded=0;whiteSpace=wrap;html=1;" parent="1" vertex="1">
          <mxGeometry x="-1671" y="494" width="72" height="38" as="geometry" />
        </mxCell>
        <mxCell id="fgw2VKMl7piZNvdP1vkD-86" value="&lt;b style=&quot;border-color: var(--border-color);&quot;&gt;block&lt;/b&gt;&lt;b&gt;&lt;br&gt;&lt;/b&gt;" style="rounded=0;whiteSpace=wrap;html=1;" parent="1" vertex="1">
          <mxGeometry x="-1601" y="494" width="72" height="38" as="geometry" />
        </mxCell>
        <mxCell id="fgw2VKMl7piZNvdP1vkD-87" value="&lt;b style=&quot;border-color: var(--border-color);&quot;&gt;block&lt;/b&gt;&lt;b&gt;&lt;br&gt;&lt;/b&gt;" style="rounded=0;whiteSpace=wrap;html=1;" parent="1" vertex="1">
          <mxGeometry x="-1529" y="494" width="72" height="38" as="geometry" />
        </mxCell>
        <mxCell id="fgw2VKMl7piZNvdP1vkD-88" value="&lt;b&gt;block&lt;br&gt;&lt;/b&gt;" style="rounded=0;whiteSpace=wrap;html=1;" parent="1" vertex="1">
          <mxGeometry x="-1887" y="532" width="72" height="38" as="geometry" />
        </mxCell>
        <mxCell id="fgw2VKMl7piZNvdP1vkD-89" value="&lt;b style=&quot;border-color: var(--border-color);&quot;&gt;block&lt;/b&gt;&lt;b&gt;&lt;br&gt;&lt;/b&gt;" style="rounded=0;whiteSpace=wrap;html=1;" parent="1" vertex="1">
          <mxGeometry x="-1815" y="532" width="72" height="38" as="geometry" />
        </mxCell>
        <mxCell id="fgw2VKMl7piZNvdP1vkD-90" value="&lt;b style=&quot;border-color: var(--border-color);&quot;&gt;block&lt;/b&gt;&lt;b&gt;&lt;br&gt;&lt;/b&gt;" style="rounded=0;whiteSpace=wrap;html=1;" parent="1" vertex="1">
          <mxGeometry x="-1743" y="532" width="72" height="38" as="geometry" />
        </mxCell>
        <mxCell id="fgw2VKMl7piZNvdP1vkD-91" value="&lt;b style=&quot;border-color: var(--border-color);&quot;&gt;block&lt;/b&gt;&lt;b&gt;&lt;br&gt;&lt;/b&gt;" style="rounded=0;whiteSpace=wrap;html=1;" parent="1" vertex="1">
          <mxGeometry x="-1671" y="532" width="72" height="38" as="geometry" />
        </mxCell>
        <mxCell id="fgw2VKMl7piZNvdP1vkD-92" value="&lt;b style=&quot;border-color: var(--border-color);&quot;&gt;block&lt;/b&gt;&lt;b&gt;&lt;br&gt;&lt;/b&gt;" style="rounded=0;whiteSpace=wrap;html=1;" parent="1" vertex="1">
          <mxGeometry x="-1601" y="532" width="72" height="38" as="geometry" />
        </mxCell>
        <mxCell id="fgw2VKMl7piZNvdP1vkD-93" value="&lt;b style=&quot;border-color: var(--border-color);&quot;&gt;block&lt;/b&gt;&lt;b&gt;&lt;br&gt;&lt;/b&gt;" style="rounded=0;whiteSpace=wrap;html=1;" parent="1" vertex="1">
          <mxGeometry x="-1529" y="532" width="72" height="38" as="geometry" />
        </mxCell>
        <mxCell id="fgw2VKMl7piZNvdP1vkD-94" value="&lt;b&gt;block&lt;br&gt;&lt;/b&gt;" style="rounded=0;whiteSpace=wrap;html=1;" parent="1" vertex="1">
          <mxGeometry x="-1887" y="570" width="72" height="38" as="geometry" />
        </mxCell>
        <mxCell id="fgw2VKMl7piZNvdP1vkD-95" value="&lt;b style=&quot;border-color: var(--border-color);&quot;&gt;block&lt;/b&gt;&lt;b&gt;&lt;br&gt;&lt;/b&gt;" style="rounded=0;whiteSpace=wrap;html=1;" parent="1" vertex="1">
          <mxGeometry x="-1815" y="570" width="72" height="38" as="geometry" />
        </mxCell>
        <mxCell id="fgw2VKMl7piZNvdP1vkD-96" value="&lt;b style=&quot;border-color: var(--border-color);&quot;&gt;block&lt;/b&gt;&lt;b&gt;&lt;br&gt;&lt;/b&gt;" style="rounded=0;whiteSpace=wrap;html=1;" parent="1" vertex="1">
          <mxGeometry x="-1743" y="570" width="72" height="38" as="geometry" />
        </mxCell>
        <mxCell id="fgw2VKMl7piZNvdP1vkD-97" value="&lt;b style=&quot;border-color: var(--border-color);&quot;&gt;block&lt;/b&gt;&lt;b&gt;&lt;br&gt;&lt;/b&gt;" style="rounded=0;whiteSpace=wrap;html=1;" parent="1" vertex="1">
          <mxGeometry x="-1671" y="570" width="72" height="38" as="geometry" />
        </mxCell>
        <mxCell id="fgw2VKMl7piZNvdP1vkD-98" value="&lt;b style=&quot;border-color: var(--border-color);&quot;&gt;block&lt;/b&gt;&lt;b&gt;&lt;br&gt;&lt;/b&gt;" style="rounded=0;whiteSpace=wrap;html=1;" parent="1" vertex="1">
          <mxGeometry x="-1601" y="570" width="72" height="38" as="geometry" />
        </mxCell>
        <mxCell id="fgw2VKMl7piZNvdP1vkD-99" value="&lt;b style=&quot;border-color: var(--border-color);&quot;&gt;block&lt;/b&gt;&lt;b&gt;&lt;br&gt;&lt;/b&gt;" style="rounded=0;whiteSpace=wrap;html=1;" parent="1" vertex="1">
          <mxGeometry x="-1529" y="570" width="72" height="38" as="geometry" />
        </mxCell>
        <mxCell id="fgw2VKMl7piZNvdP1vkD-100" value="&lt;b&gt;block&lt;br&gt;&lt;/b&gt;" style="rounded=0;whiteSpace=wrap;html=1;" parent="1" vertex="1">
          <mxGeometry x="-1887" y="608" width="72" height="38" as="geometry" />
        </mxCell>
        <mxCell id="fgw2VKMl7piZNvdP1vkD-101" value="&lt;b style=&quot;border-color: var(--border-color);&quot;&gt;block&lt;/b&gt;&lt;b&gt;&lt;br&gt;&lt;/b&gt;" style="rounded=0;whiteSpace=wrap;html=1;" parent="1" vertex="1">
          <mxGeometry x="-1815" y="608" width="72" height="38" as="geometry" />
        </mxCell>
        <mxCell id="fgw2VKMl7piZNvdP1vkD-102" value="&lt;b style=&quot;border-color: var(--border-color);&quot;&gt;block&lt;/b&gt;&lt;b&gt;&lt;br&gt;&lt;/b&gt;" style="rounded=0;whiteSpace=wrap;html=1;" parent="1" vertex="1">
          <mxGeometry x="-1743" y="608" width="72" height="38" as="geometry" />
        </mxCell>
        <mxCell id="fgw2VKMl7piZNvdP1vkD-103" value="&lt;b style=&quot;border-color: var(--border-color);&quot;&gt;block&lt;/b&gt;&lt;b&gt;&lt;br&gt;&lt;/b&gt;" style="rounded=0;whiteSpace=wrap;html=1;" parent="1" vertex="1">
          <mxGeometry x="-1671" y="646" width="72" height="38" as="geometry" />
        </mxCell>
        <mxCell id="fgw2VKMl7piZNvdP1vkD-104" value="&lt;b style=&quot;border-color: var(--border-color);&quot;&gt;block&lt;/b&gt;&lt;b&gt;&lt;br&gt;&lt;/b&gt;" style="rounded=0;whiteSpace=wrap;html=1;" parent="1" vertex="1">
          <mxGeometry x="-1601" y="646" width="72" height="38" as="geometry" />
        </mxCell>
        <mxCell id="fgw2VKMl7piZNvdP1vkD-105" value="&lt;b style=&quot;border-color: var(--border-color);&quot;&gt;block&lt;/b&gt;&lt;b&gt;&lt;br&gt;&lt;/b&gt;" style="rounded=0;whiteSpace=wrap;html=1;" parent="1" vertex="1">
          <mxGeometry x="-1529" y="646" width="72" height="38" as="geometry" />
        </mxCell>
        <mxCell id="fgw2VKMl7piZNvdP1vkD-106" value="&lt;b&gt;block&lt;br&gt;&lt;/b&gt;" style="rounded=0;whiteSpace=wrap;html=1;" parent="1" vertex="1">
          <mxGeometry x="-1887" y="646" width="72" height="38" as="geometry" />
        </mxCell>
        <mxCell id="fgw2VKMl7piZNvdP1vkD-107" value="&lt;b style=&quot;border-color: var(--border-color);&quot;&gt;block&lt;/b&gt;&lt;b&gt;&lt;br&gt;&lt;/b&gt;" style="rounded=0;whiteSpace=wrap;html=1;" parent="1" vertex="1">
          <mxGeometry x="-1815" y="646" width="72" height="38" as="geometry" />
        </mxCell>
        <mxCell id="fgw2VKMl7piZNvdP1vkD-108" value="&lt;b style=&quot;border-color: var(--border-color);&quot;&gt;block&lt;/b&gt;&lt;b&gt;&lt;br&gt;&lt;/b&gt;" style="rounded=0;whiteSpace=wrap;html=1;" parent="1" vertex="1">
          <mxGeometry x="-1743" y="646" width="72" height="38" as="geometry" />
        </mxCell>
        <mxCell id="fgw2VKMl7piZNvdP1vkD-109" value="&lt;b style=&quot;border-color: var(--border-color);&quot;&gt;block&lt;/b&gt;&lt;b&gt;&lt;br&gt;&lt;/b&gt;" style="rounded=0;whiteSpace=wrap;html=1;" parent="1" vertex="1">
          <mxGeometry x="-1671" y="608" width="72" height="38" as="geometry" />
        </mxCell>
        <mxCell id="fgw2VKMl7piZNvdP1vkD-110" value="&lt;b style=&quot;border-color: var(--border-color);&quot;&gt;block&lt;/b&gt;&lt;b&gt;&lt;br&gt;&lt;/b&gt;" style="rounded=0;whiteSpace=wrap;html=1;" parent="1" vertex="1">
          <mxGeometry x="-1601" y="608" width="72" height="38" as="geometry" />
        </mxCell>
        <mxCell id="fgw2VKMl7piZNvdP1vkD-111" value="&lt;b style=&quot;border-color: var(--border-color);&quot;&gt;block&lt;/b&gt;&lt;b&gt;&lt;br&gt;&lt;/b&gt;" style="rounded=0;whiteSpace=wrap;html=1;" parent="1" vertex="1">
          <mxGeometry x="-1529" y="608" width="72" height="38" as="geometry" />
        </mxCell>
        <mxCell id="fgw2VKMl7piZNvdP1vkD-112" value="4 KB pool" style="rounded=0;whiteSpace=wrap;html=1;" parent="1" vertex="1">
          <mxGeometry x="-1889" y="762" width="430" height="228" as="geometry" />
        </mxCell>
        <mxCell id="fgw2VKMl7piZNvdP1vkD-113" value="&lt;b&gt;pool_header&lt;br&gt;&lt;/b&gt;" style="rounded=0;whiteSpace=wrap;html=1;" parent="1" vertex="1">
          <mxGeometry x="-1889" y="762" width="72" height="38" as="geometry" />
        </mxCell>
        <mxCell id="fgw2VKMl7piZNvdP1vkD-114" value="&lt;b&gt;block 0&lt;br&gt;&lt;/b&gt;" style="rounded=0;whiteSpace=wrap;html=1;" parent="1" vertex="1">
          <mxGeometry x="-1817" y="762" width="72" height="38" as="geometry" />
        </mxCell>
        <mxCell id="fgw2VKMl7piZNvdP1vkD-115" value="&lt;b&gt;block 1&lt;br&gt;&lt;/b&gt;" style="rounded=0;whiteSpace=wrap;html=1;" parent="1" vertex="1">
          <mxGeometry x="-1745" y="762" width="72" height="38" as="geometry" />
        </mxCell>
        <mxCell id="fgw2VKMl7piZNvdP1vkD-116" value="&lt;b&gt;block 2&lt;br&gt;&lt;/b&gt;" style="rounded=0;whiteSpace=wrap;html=1;" parent="1" vertex="1">
          <mxGeometry x="-1673" y="762" width="72" height="38" as="geometry" />
        </mxCell>
        <mxCell id="fgw2VKMl7piZNvdP1vkD-117" value="&lt;b&gt;block&lt;br&gt;&lt;/b&gt;" style="rounded=0;whiteSpace=wrap;html=1;" parent="1" vertex="1">
          <mxGeometry x="-1603" y="762" width="72" height="38" as="geometry" />
        </mxCell>
        <mxCell id="fgw2VKMl7piZNvdP1vkD-118" value="&lt;b&gt;block 0&lt;br&gt;&lt;/b&gt;" style="rounded=0;whiteSpace=wrap;html=1;" parent="1" vertex="1">
          <mxGeometry x="-1531" y="762" width="72" height="38" as="geometry" />
        </mxCell>
        <mxCell id="fgw2VKMl7piZNvdP1vkD-119" value="&lt;b&gt;block&lt;br&gt;&lt;/b&gt;" style="rounded=0;whiteSpace=wrap;html=1;" parent="1" vertex="1">
          <mxGeometry x="-1889" y="800" width="72" height="38" as="geometry" />
        </mxCell>
        <mxCell id="fgw2VKMl7piZNvdP1vkD-120" value="&lt;b style=&quot;border-color: var(--border-color);&quot;&gt;block&lt;/b&gt;&lt;b&gt;&lt;br&gt;&lt;/b&gt;" style="rounded=0;whiteSpace=wrap;html=1;" parent="1" vertex="1">
          <mxGeometry x="-1817" y="800" width="72" height="38" as="geometry" />
        </mxCell>
        <mxCell id="fgw2VKMl7piZNvdP1vkD-121" value="&lt;b style=&quot;border-color: var(--border-color);&quot;&gt;block&lt;/b&gt;&lt;b&gt;&lt;br&gt;&lt;/b&gt;" style="rounded=0;whiteSpace=wrap;html=1;" parent="1" vertex="1">
          <mxGeometry x="-1745" y="800" width="72" height="38" as="geometry" />
        </mxCell>
        <mxCell id="fgw2VKMl7piZNvdP1vkD-122" value="&lt;b style=&quot;border-color: var(--border-color);&quot;&gt;block&lt;/b&gt;&lt;b&gt;&lt;br&gt;&lt;/b&gt;" style="rounded=0;whiteSpace=wrap;html=1;" parent="1" vertex="1">
          <mxGeometry x="-1673" y="800" width="72" height="38" as="geometry" />
        </mxCell>
        <mxCell id="fgw2VKMl7piZNvdP1vkD-123" value="&lt;b style=&quot;border-color: var(--border-color);&quot;&gt;block&lt;/b&gt;&lt;b&gt;&lt;br&gt;&lt;/b&gt;" style="rounded=0;whiteSpace=wrap;html=1;" parent="1" vertex="1">
          <mxGeometry x="-1603" y="800" width="72" height="38" as="geometry" />
        </mxCell>
        <mxCell id="fgw2VKMl7piZNvdP1vkD-124" value="&lt;b style=&quot;border-color: var(--border-color);&quot;&gt;block&lt;/b&gt;&lt;b&gt;&lt;br&gt;&lt;/b&gt;" style="rounded=0;whiteSpace=wrap;html=1;" parent="1" vertex="1">
          <mxGeometry x="-1531" y="800" width="72" height="38" as="geometry" />
        </mxCell>
        <mxCell id="fgw2VKMl7piZNvdP1vkD-125" value="&lt;b&gt;block&lt;br&gt;&lt;/b&gt;" style="rounded=0;whiteSpace=wrap;html=1;" parent="1" vertex="1">
          <mxGeometry x="-1889" y="838" width="72" height="38" as="geometry" />
        </mxCell>
        <mxCell id="fgw2VKMl7piZNvdP1vkD-126" value="&lt;b style=&quot;border-color: var(--border-color);&quot;&gt;block&lt;/b&gt;&lt;b&gt;&lt;br&gt;&lt;/b&gt;" style="rounded=0;whiteSpace=wrap;html=1;" parent="1" vertex="1">
          <mxGeometry x="-1817" y="838" width="72" height="38" as="geometry" />
        </mxCell>
        <mxCell id="fgw2VKMl7piZNvdP1vkD-127" value="&lt;b style=&quot;border-color: var(--border-color);&quot;&gt;block&lt;/b&gt;&lt;b&gt;&lt;br&gt;&lt;/b&gt;" style="rounded=0;whiteSpace=wrap;html=1;" parent="1" vertex="1">
          <mxGeometry x="-1745" y="838" width="72" height="38" as="geometry" />
        </mxCell>
        <mxCell id="fgw2VKMl7piZNvdP1vkD-128" value="&lt;b style=&quot;border-color: var(--border-color);&quot;&gt;block&lt;/b&gt;&lt;b&gt;&lt;br&gt;&lt;/b&gt;" style="rounded=0;whiteSpace=wrap;html=1;" parent="1" vertex="1">
          <mxGeometry x="-1673" y="838" width="72" height="38" as="geometry" />
        </mxCell>
        <mxCell id="fgw2VKMl7piZNvdP1vkD-129" value="&lt;b style=&quot;border-color: var(--border-color);&quot;&gt;block&lt;/b&gt;&lt;b&gt;&lt;br&gt;&lt;/b&gt;" style="rounded=0;whiteSpace=wrap;html=1;" parent="1" vertex="1">
          <mxGeometry x="-1603" y="838" width="72" height="38" as="geometry" />
        </mxCell>
        <mxCell id="fgw2VKMl7piZNvdP1vkD-130" value="&lt;b style=&quot;border-color: var(--border-color);&quot;&gt;block&lt;/b&gt;&lt;b&gt;&lt;br&gt;&lt;/b&gt;" style="rounded=0;whiteSpace=wrap;html=1;" parent="1" vertex="1">
          <mxGeometry x="-1531" y="838" width="72" height="38" as="geometry" />
        </mxCell>
        <mxCell id="fgw2VKMl7piZNvdP1vkD-131" value="&lt;b&gt;block&lt;br&gt;&lt;/b&gt;" style="rounded=0;whiteSpace=wrap;html=1;" parent="1" vertex="1">
          <mxGeometry x="-1889" y="876" width="72" height="38" as="geometry" />
        </mxCell>
        <mxCell id="fgw2VKMl7piZNvdP1vkD-132" value="&lt;b style=&quot;border-color: var(--border-color);&quot;&gt;block&lt;/b&gt;&lt;b&gt;&lt;br&gt;&lt;/b&gt;" style="rounded=0;whiteSpace=wrap;html=1;" parent="1" vertex="1">
          <mxGeometry x="-1817" y="876" width="72" height="38" as="geometry" />
        </mxCell>
        <mxCell id="fgw2VKMl7piZNvdP1vkD-133" value="&lt;b style=&quot;border-color: var(--border-color);&quot;&gt;block&lt;/b&gt;&lt;b&gt;&lt;br&gt;&lt;/b&gt;" style="rounded=0;whiteSpace=wrap;html=1;" parent="1" vertex="1">
          <mxGeometry x="-1745" y="876" width="72" height="38" as="geometry" />
        </mxCell>
        <mxCell id="fgw2VKMl7piZNvdP1vkD-134" value="&lt;b style=&quot;border-color: var(--border-color);&quot;&gt;block&lt;/b&gt;&lt;b&gt;&lt;br&gt;&lt;/b&gt;" style="rounded=0;whiteSpace=wrap;html=1;" parent="1" vertex="1">
          <mxGeometry x="-1673" y="876" width="72" height="38" as="geometry" />
        </mxCell>
        <mxCell id="fgw2VKMl7piZNvdP1vkD-135" value="&lt;b style=&quot;border-color: var(--border-color);&quot;&gt;block&lt;/b&gt;&lt;b&gt;&lt;br&gt;&lt;/b&gt;" style="rounded=0;whiteSpace=wrap;html=1;" parent="1" vertex="1">
          <mxGeometry x="-1603" y="876" width="72" height="38" as="geometry" />
        </mxCell>
        <mxCell id="fgw2VKMl7piZNvdP1vkD-136" value="&lt;b style=&quot;border-color: var(--border-color);&quot;&gt;block&lt;/b&gt;&lt;b&gt;&lt;br&gt;&lt;/b&gt;" style="rounded=0;whiteSpace=wrap;html=1;" parent="1" vertex="1">
          <mxGeometry x="-1531" y="876" width="72" height="38" as="geometry" />
        </mxCell>
        <mxCell id="fgw2VKMl7piZNvdP1vkD-137" value="&lt;b&gt;block&lt;br&gt;&lt;/b&gt;" style="rounded=0;whiteSpace=wrap;html=1;" parent="1" vertex="1">
          <mxGeometry x="-1889" y="914" width="72" height="38" as="geometry" />
        </mxCell>
        <mxCell id="fgw2VKMl7piZNvdP1vkD-138" value="&lt;b style=&quot;border-color: var(--border-color);&quot;&gt;block&lt;/b&gt;&lt;b&gt;&lt;br&gt;&lt;/b&gt;" style="rounded=0;whiteSpace=wrap;html=1;" parent="1" vertex="1">
          <mxGeometry x="-1817" y="914" width="72" height="38" as="geometry" />
        </mxCell>
        <mxCell id="fgw2VKMl7piZNvdP1vkD-139" value="&lt;b style=&quot;border-color: var(--border-color);&quot;&gt;block&lt;/b&gt;&lt;b&gt;&lt;br&gt;&lt;/b&gt;" style="rounded=0;whiteSpace=wrap;html=1;" parent="1" vertex="1">
          <mxGeometry x="-1745" y="914" width="72" height="38" as="geometry" />
        </mxCell>
        <mxCell id="fgw2VKMl7piZNvdP1vkD-140" value="&lt;b style=&quot;border-color: var(--border-color);&quot;&gt;block&lt;/b&gt;&lt;b&gt;&lt;br&gt;&lt;/b&gt;" style="rounded=0;whiteSpace=wrap;html=1;" parent="1" vertex="1">
          <mxGeometry x="-1673" y="952" width="72" height="38" as="geometry" />
        </mxCell>
        <mxCell id="fgw2VKMl7piZNvdP1vkD-141" value="&lt;b style=&quot;border-color: var(--border-color);&quot;&gt;block&lt;/b&gt;&lt;b&gt;&lt;br&gt;&lt;/b&gt;" style="rounded=0;whiteSpace=wrap;html=1;" parent="1" vertex="1">
          <mxGeometry x="-1603" y="952" width="72" height="38" as="geometry" />
        </mxCell>
        <mxCell id="fgw2VKMl7piZNvdP1vkD-142" value="&lt;b style=&quot;border-color: var(--border-color);&quot;&gt;block&lt;/b&gt;&lt;b&gt;&lt;br&gt;&lt;/b&gt;" style="rounded=0;whiteSpace=wrap;html=1;" parent="1" vertex="1">
          <mxGeometry x="-1531" y="952" width="72" height="38" as="geometry" />
        </mxCell>
        <mxCell id="fgw2VKMl7piZNvdP1vkD-143" value="&lt;b&gt;block&lt;br&gt;&lt;/b&gt;" style="rounded=0;whiteSpace=wrap;html=1;" parent="1" vertex="1">
          <mxGeometry x="-1889" y="952" width="72" height="38" as="geometry" />
        </mxCell>
        <mxCell id="fgw2VKMl7piZNvdP1vkD-144" value="&lt;b style=&quot;border-color: var(--border-color);&quot;&gt;block&lt;/b&gt;&lt;b&gt;&lt;br&gt;&lt;/b&gt;" style="rounded=0;whiteSpace=wrap;html=1;" parent="1" vertex="1">
          <mxGeometry x="-1817" y="952" width="72" height="38" as="geometry" />
        </mxCell>
        <mxCell id="fgw2VKMl7piZNvdP1vkD-145" value="&lt;b style=&quot;border-color: var(--border-color);&quot;&gt;block&lt;/b&gt;&lt;b&gt;&lt;br&gt;&lt;/b&gt;" style="rounded=0;whiteSpace=wrap;html=1;" parent="1" vertex="1">
          <mxGeometry x="-1745" y="952" width="72" height="38" as="geometry" />
        </mxCell>
        <mxCell id="fgw2VKMl7piZNvdP1vkD-146" value="&lt;b style=&quot;border-color: var(--border-color);&quot;&gt;block&lt;/b&gt;&lt;b&gt;&lt;br&gt;&lt;/b&gt;" style="rounded=0;whiteSpace=wrap;html=1;" parent="1" vertex="1">
          <mxGeometry x="-1673" y="914" width="72" height="38" as="geometry" />
        </mxCell>
        <mxCell id="fgw2VKMl7piZNvdP1vkD-147" value="&lt;b style=&quot;border-color: var(--border-color);&quot;&gt;block&lt;/b&gt;&lt;b&gt;&lt;br&gt;&lt;/b&gt;" style="rounded=0;whiteSpace=wrap;html=1;" parent="1" vertex="1">
          <mxGeometry x="-1603" y="914" width="72" height="38" as="geometry" />
        </mxCell>
        <mxCell id="fgw2VKMl7piZNvdP1vkD-148" value="&lt;b style=&quot;border-color: var(--border-color);&quot;&gt;block&lt;/b&gt;&lt;b&gt;&lt;br&gt;&lt;/b&gt;" style="rounded=0;whiteSpace=wrap;html=1;" parent="1" vertex="1">
          <mxGeometry x="-1531" y="914" width="72" height="38" as="geometry" />
        </mxCell>
        <mxCell id="pjgLTpNeczXnPJPAHSIU-161" style="edgeStyle=orthogonalEdgeStyle;rounded=0;orthogonalLoop=1;jettySize=auto;html=1;entryX=0;entryY=0;entryDx=0;entryDy=0;" parent="1" source="pjgLTpNeczXnPJPAHSIU-1" target="pjgLTpNeczXnPJPAHSIU-100" edge="1">
          <mxGeometry relative="1" as="geometry" />
        </mxCell>
        <mxCell id="pjgLTpNeczXnPJPAHSIU-1" value="&lt;b&gt;arena 0&lt;br&gt;&lt;/b&gt;" style="rounded=0;whiteSpace=wrap;html=1;" parent="1" vertex="1">
          <mxGeometry x="-2652" y="1004" width="62" height="41" as="geometry" />
        </mxCell>
        <mxCell id="pjgLTpNeczXnPJPAHSIU-158" style="edgeStyle=orthogonalEdgeStyle;rounded=0;orthogonalLoop=1;jettySize=auto;html=1;entryX=0;entryY=0;entryDx=0;entryDy=0;" parent="1" source="pjgLTpNeczXnPJPAHSIU-2" target="pjgLTpNeczXnPJPAHSIU-13" edge="1">
          <mxGeometry relative="1" as="geometry" />
        </mxCell>
        <mxCell id="pjgLTpNeczXnPJPAHSIU-2" value="&lt;b&gt;arena 1&lt;br&gt;&lt;/b&gt;" style="rounded=0;whiteSpace=wrap;html=1;" parent="1" vertex="1">
          <mxGeometry x="-2590" y="1004" width="62" height="41" as="geometry" />
        </mxCell>
        <mxCell id="pjgLTpNeczXnPJPAHSIU-162" style="edgeStyle=orthogonalEdgeStyle;rounded=0;orthogonalLoop=1;jettySize=auto;html=1;entryX=0;entryY=0;entryDx=0;entryDy=0;" parent="1" source="pjgLTpNeczXnPJPAHSIU-3" target="pjgLTpNeczXnPJPAHSIU-128" edge="1">
          <mxGeometry relative="1" as="geometry">
            <Array as="points">
              <mxPoint x="-2494" y="1080" />
              <mxPoint x="-2394" y="1080" />
            </Array>
          </mxGeometry>
        </mxCell>
        <mxCell id="pjgLTpNeczXnPJPAHSIU-3" value="&lt;b&gt;arena 2&lt;br&gt;&lt;/b&gt;" style="rounded=0;whiteSpace=wrap;html=1;" parent="1" vertex="1">
          <mxGeometry x="-2530" y="1004" width="62" height="41" as="geometry" />
        </mxCell>
        <mxCell id="pjgLTpNeczXnPJPAHSIU-163" style="edgeStyle=orthogonalEdgeStyle;rounded=0;orthogonalLoop=1;jettySize=auto;html=1;" parent="1" source="pjgLTpNeczXnPJPAHSIU-4" edge="1">
          <mxGeometry relative="1" as="geometry">
            <mxPoint x="-2230.9194841056033" y="1124.2069807381465" as="targetPoint" />
            <Array as="points">
              <mxPoint x="-2437" y="1065" />
              <mxPoint x="-2231" y="1065" />
            </Array>
          </mxGeometry>
        </mxCell>
        <mxCell id="pjgLTpNeczXnPJPAHSIU-4" value="&lt;b&gt;arena 3&lt;br&gt;&lt;/b&gt;" style="rounded=0;whiteSpace=wrap;html=1;" parent="1" vertex="1">
          <mxGeometry x="-2468" y="1004" width="62" height="41" as="geometry" />
        </mxCell>
        <mxCell id="pjgLTpNeczXnPJPAHSIU-5" value="&lt;b&gt;arena 4&lt;br&gt;&lt;/b&gt;" style="rounded=0;whiteSpace=wrap;html=1;" parent="1" vertex="1">
          <mxGeometry x="-2406" y="1004" width="62" height="41" as="geometry" />
        </mxCell>
        <mxCell id="pjgLTpNeczXnPJPAHSIU-6" value="&lt;b&gt;arena 5&lt;br&gt;&lt;/b&gt;" style="rounded=0;whiteSpace=wrap;html=1;" parent="1" vertex="1">
          <mxGeometry x="-2344" y="1004" width="62" height="41" as="geometry" />
        </mxCell>
        <mxCell id="pjgLTpNeczXnPJPAHSIU-7" value="&lt;b&gt;arena 6&lt;br&gt;&lt;/b&gt;" style="rounded=0;whiteSpace=wrap;html=1;" parent="1" vertex="1">
          <mxGeometry x="-2284" y="1004" width="62" height="41" as="geometry" />
        </mxCell>
        <mxCell id="pjgLTpNeczXnPJPAHSIU-8" value="&lt;b&gt;arena 7&lt;br&gt;&lt;/b&gt;" style="rounded=0;whiteSpace=wrap;html=1;" parent="1" vertex="1">
          <mxGeometry x="-2222" y="1004" width="62" height="41" as="geometry" />
        </mxCell>
        <mxCell id="pjgLTpNeczXnPJPAHSIU-10" value="pool" style="rounded=0;whiteSpace=wrap;html=1;" parent="1" vertex="1">
          <mxGeometry x="-2542.5" y="1140" width="29" height="26" as="geometry" />
        </mxCell>
        <mxCell id="pjgLTpNeczXnPJPAHSIU-13" value="&lt;b&gt;pool_header&lt;/b&gt;" style="rounded=0;whiteSpace=wrap;html=1;" parent="1" vertex="1">
          <mxGeometry x="-2542.5" y="1118" width="87" height="22" as="geometry" />
        </mxCell>
        <mxCell id="pjgLTpNeczXnPJPAHSIU-14" value="pool" style="rounded=0;whiteSpace=wrap;html=1;" parent="1" vertex="1">
          <mxGeometry x="-2513.5" y="1140" width="29" height="26" as="geometry" />
        </mxCell>
        <mxCell id="pjgLTpNeczXnPJPAHSIU-15" value="pool" style="rounded=0;whiteSpace=wrap;html=1;" parent="1" vertex="1">
          <mxGeometry x="-2484.5" y="1140" width="29" height="26" as="geometry" />
        </mxCell>
        <mxCell id="pjgLTpNeczXnPJPAHSIU-16" value="pool" style="rounded=0;whiteSpace=wrap;html=1;" parent="1" vertex="1">
          <mxGeometry x="-2542.5" y="1166" width="29" height="26" as="geometry" />
        </mxCell>
        <mxCell id="pjgLTpNeczXnPJPAHSIU-17" value="pool" style="rounded=0;whiteSpace=wrap;html=1;" parent="1" vertex="1">
          <mxGeometry x="-2513.5" y="1166" width="29" height="26" as="geometry" />
        </mxCell>
        <mxCell id="pjgLTpNeczXnPJPAHSIU-18" value="pool" style="rounded=0;whiteSpace=wrap;html=1;" parent="1" vertex="1">
          <mxGeometry x="-2484.5" y="1166" width="29" height="26" as="geometry" />
        </mxCell>
        <mxCell id="pjgLTpNeczXnPJPAHSIU-19" value="pool" style="rounded=0;whiteSpace=wrap;html=1;" parent="1" vertex="1">
          <mxGeometry x="-2542.5" y="1214" width="29" height="26" as="geometry" />
        </mxCell>
        <mxCell id="pjgLTpNeczXnPJPAHSIU-20" value="&lt;b&gt;pool_header&lt;/b&gt;" style="rounded=0;whiteSpace=wrap;html=1;" parent="1" vertex="1">
          <mxGeometry x="-2542.5" y="1192" width="87" height="22" as="geometry" />
        </mxCell>
        <mxCell id="pjgLTpNeczXnPJPAHSIU-21" value="pool" style="rounded=0;whiteSpace=wrap;html=1;" parent="1" vertex="1">
          <mxGeometry x="-2513.5" y="1214" width="29" height="26" as="geometry" />
        </mxCell>
        <mxCell id="pjgLTpNeczXnPJPAHSIU-22" value="pool" style="rounded=0;whiteSpace=wrap;html=1;" parent="1" vertex="1">
          <mxGeometry x="-2484.5" y="1214" width="29" height="26" as="geometry" />
        </mxCell>
        <mxCell id="pjgLTpNeczXnPJPAHSIU-23" value="pool" style="rounded=0;whiteSpace=wrap;html=1;" parent="1" vertex="1">
          <mxGeometry x="-2542.5" y="1240" width="29" height="26" as="geometry" />
        </mxCell>
        <mxCell id="pjgLTpNeczXnPJPAHSIU-24" value="pool" style="rounded=0;whiteSpace=wrap;html=1;" parent="1" vertex="1">
          <mxGeometry x="-2513.5" y="1240" width="29" height="26" as="geometry" />
        </mxCell>
        <mxCell id="pjgLTpNeczXnPJPAHSIU-25" value="pool" style="rounded=0;whiteSpace=wrap;html=1;" parent="1" vertex="1">
          <mxGeometry x="-2484.5" y="1240" width="29" height="26" as="geometry" />
        </mxCell>
        <mxCell id="pjgLTpNeczXnPJPAHSIU-26" value="pool" style="rounded=0;whiteSpace=wrap;html=1;" parent="1" vertex="1">
          <mxGeometry x="-2542.5" y="1288" width="29" height="26" as="geometry" />
        </mxCell>
        <mxCell id="pjgLTpNeczXnPJPAHSIU-27" value="&lt;b&gt;pool_header&lt;/b&gt;" style="rounded=0;whiteSpace=wrap;html=1;" parent="1" vertex="1">
          <mxGeometry x="-2542.5" y="1266" width="87" height="22" as="geometry" />
        </mxCell>
        <mxCell id="pjgLTpNeczXnPJPAHSIU-28" value="pool" style="rounded=0;whiteSpace=wrap;html=1;" parent="1" vertex="1">
          <mxGeometry x="-2513.5" y="1288" width="29" height="26" as="geometry" />
        </mxCell>
        <mxCell id="pjgLTpNeczXnPJPAHSIU-29" value="pool" style="rounded=0;whiteSpace=wrap;html=1;" parent="1" vertex="1">
          <mxGeometry x="-2484.5" y="1288" width="29" height="26" as="geometry" />
        </mxCell>
        <mxCell id="pjgLTpNeczXnPJPAHSIU-30" value="pool" style="rounded=0;whiteSpace=wrap;html=1;" parent="1" vertex="1">
          <mxGeometry x="-2542.5" y="1314" width="29" height="26" as="geometry" />
        </mxCell>
        <mxCell id="pjgLTpNeczXnPJPAHSIU-31" value="pool" style="rounded=0;whiteSpace=wrap;html=1;" parent="1" vertex="1">
          <mxGeometry x="-2513.5" y="1314" width="29" height="26" as="geometry" />
        </mxCell>
        <mxCell id="pjgLTpNeczXnPJPAHSIU-32" value="pool" style="rounded=0;whiteSpace=wrap;html=1;" parent="1" vertex="1">
          <mxGeometry x="-2484.5" y="1314" width="29" height="26" as="geometry" />
        </mxCell>
        <mxCell id="pjgLTpNeczXnPJPAHSIU-33" value="pool" style="rounded=0;whiteSpace=wrap;html=1;" parent="1" vertex="1">
          <mxGeometry x="-2542.5" y="1362" width="29" height="26" as="geometry" />
        </mxCell>
        <mxCell id="pjgLTpNeczXnPJPAHSIU-34" value="&lt;b&gt;pool_header&lt;/b&gt;" style="rounded=0;whiteSpace=wrap;html=1;" parent="1" vertex="1">
          <mxGeometry x="-2542.5" y="1340" width="87" height="22" as="geometry" />
        </mxCell>
        <mxCell id="pjgLTpNeczXnPJPAHSIU-35" value="pool" style="rounded=0;whiteSpace=wrap;html=1;" parent="1" vertex="1">
          <mxGeometry x="-2513.5" y="1362" width="29" height="26" as="geometry" />
        </mxCell>
        <mxCell id="pjgLTpNeczXnPJPAHSIU-36" value="pool" style="rounded=0;whiteSpace=wrap;html=1;" parent="1" vertex="1">
          <mxGeometry x="-2484.5" y="1362" width="29" height="26" as="geometry" />
        </mxCell>
        <mxCell id="pjgLTpNeczXnPJPAHSIU-37" value="pool" style="rounded=0;whiteSpace=wrap;html=1;" parent="1" vertex="1">
          <mxGeometry x="-2542.5" y="1388" width="29" height="26" as="geometry" />
        </mxCell>
        <mxCell id="pjgLTpNeczXnPJPAHSIU-38" value="pool" style="rounded=0;whiteSpace=wrap;html=1;" parent="1" vertex="1">
          <mxGeometry x="-2513.5" y="1388" width="29" height="26" as="geometry" />
        </mxCell>
        <mxCell id="pjgLTpNeczXnPJPAHSIU-39" value="pool" style="rounded=0;whiteSpace=wrap;html=1;" parent="1" vertex="1">
          <mxGeometry x="-2484.5" y="1388" width="29" height="26" as="geometry" />
        </mxCell>
        <mxCell id="pjgLTpNeczXnPJPAHSIU-68" value="pool" style="rounded=0;whiteSpace=wrap;html=1;" parent="1" vertex="1">
          <mxGeometry x="-2230.5" y="1140" width="29" height="26" as="geometry" />
        </mxCell>
        <mxCell id="pjgLTpNeczXnPJPAHSIU-69" value="&lt;b&gt;pool_header&lt;/b&gt;" style="rounded=0;whiteSpace=wrap;html=1;" parent="1" vertex="1">
          <mxGeometry x="-2230.5" y="1118" width="87" height="22" as="geometry" />
        </mxCell>
        <mxCell id="pjgLTpNeczXnPJPAHSIU-70" value="pool" style="rounded=0;whiteSpace=wrap;html=1;" parent="1" vertex="1">
          <mxGeometry x="-2201.5" y="1140" width="29" height="26" as="geometry" />
        </mxCell>
        <mxCell id="pjgLTpNeczXnPJPAHSIU-71" value="pool" style="rounded=0;whiteSpace=wrap;html=1;" parent="1" vertex="1">
          <mxGeometry x="-2172.5" y="1140" width="29" height="26" as="geometry" />
        </mxCell>
        <mxCell id="pjgLTpNeczXnPJPAHSIU-72" value="pool" style="rounded=0;whiteSpace=wrap;html=1;" parent="1" vertex="1">
          <mxGeometry x="-2230.5" y="1166" width="29" height="26" as="geometry" />
        </mxCell>
        <mxCell id="pjgLTpNeczXnPJPAHSIU-73" value="pool" style="rounded=0;whiteSpace=wrap;html=1;" parent="1" vertex="1">
          <mxGeometry x="-2201.5" y="1166" width="29" height="26" as="geometry" />
        </mxCell>
        <mxCell id="pjgLTpNeczXnPJPAHSIU-74" value="pool" style="rounded=0;whiteSpace=wrap;html=1;" parent="1" vertex="1">
          <mxGeometry x="-2172.5" y="1166" width="29" height="26" as="geometry" />
        </mxCell>
        <mxCell id="pjgLTpNeczXnPJPAHSIU-75" value="pool" style="rounded=0;whiteSpace=wrap;html=1;" parent="1" vertex="1">
          <mxGeometry x="-2230.5" y="1214" width="29" height="26" as="geometry" />
        </mxCell>
        <mxCell id="pjgLTpNeczXnPJPAHSIU-76" value="&lt;b&gt;pool_header&lt;/b&gt;" style="rounded=0;whiteSpace=wrap;html=1;" parent="1" vertex="1">
          <mxGeometry x="-2230.5" y="1192" width="87" height="22" as="geometry" />
        </mxCell>
        <mxCell id="pjgLTpNeczXnPJPAHSIU-77" value="pool" style="rounded=0;whiteSpace=wrap;html=1;" parent="1" vertex="1">
          <mxGeometry x="-2201.5" y="1214" width="29" height="26" as="geometry" />
        </mxCell>
        <mxCell id="pjgLTpNeczXnPJPAHSIU-78" value="pool" style="rounded=0;whiteSpace=wrap;html=1;" parent="1" vertex="1">
          <mxGeometry x="-2172.5" y="1214" width="29" height="26" as="geometry" />
        </mxCell>
        <mxCell id="pjgLTpNeczXnPJPAHSIU-79" value="pool" style="rounded=0;whiteSpace=wrap;html=1;" parent="1" vertex="1">
          <mxGeometry x="-2230.5" y="1240" width="29" height="26" as="geometry" />
        </mxCell>
        <mxCell id="pjgLTpNeczXnPJPAHSIU-80" value="pool" style="rounded=0;whiteSpace=wrap;html=1;" parent="1" vertex="1">
          <mxGeometry x="-2201.5" y="1240" width="29" height="26" as="geometry" />
        </mxCell>
        <mxCell id="pjgLTpNeczXnPJPAHSIU-81" value="pool" style="rounded=0;whiteSpace=wrap;html=1;" parent="1" vertex="1">
          <mxGeometry x="-2172.5" y="1240" width="29" height="26" as="geometry" />
        </mxCell>
        <mxCell id="pjgLTpNeczXnPJPAHSIU-82" value="pool" style="rounded=0;whiteSpace=wrap;html=1;" parent="1" vertex="1">
          <mxGeometry x="-2230.5" y="1288" width="29" height="26" as="geometry" />
        </mxCell>
        <mxCell id="pjgLTpNeczXnPJPAHSIU-83" value="&lt;b&gt;pool_header&lt;/b&gt;" style="rounded=0;whiteSpace=wrap;html=1;" parent="1" vertex="1">
          <mxGeometry x="-2230.5" y="1266" width="87" height="22" as="geometry" />
        </mxCell>
        <mxCell id="pjgLTpNeczXnPJPAHSIU-84" value="pool" style="rounded=0;whiteSpace=wrap;html=1;" parent="1" vertex="1">
          <mxGeometry x="-2201.5" y="1288" width="29" height="26" as="geometry" />
        </mxCell>
        <mxCell id="pjgLTpNeczXnPJPAHSIU-85" value="pool" style="rounded=0;whiteSpace=wrap;html=1;" parent="1" vertex="1">
          <mxGeometry x="-2172.5" y="1288" width="29" height="26" as="geometry" />
        </mxCell>
        <mxCell id="pjgLTpNeczXnPJPAHSIU-86" value="pool" style="rounded=0;whiteSpace=wrap;html=1;" parent="1" vertex="1">
          <mxGeometry x="-2230.5" y="1314" width="29" height="26" as="geometry" />
        </mxCell>
        <mxCell id="pjgLTpNeczXnPJPAHSIU-87" value="pool" style="rounded=0;whiteSpace=wrap;html=1;" parent="1" vertex="1">
          <mxGeometry x="-2201.5" y="1314" width="29" height="26" as="geometry" />
        </mxCell>
        <mxCell id="pjgLTpNeczXnPJPAHSIU-88" value="pool" style="rounded=0;whiteSpace=wrap;html=1;" parent="1" vertex="1">
          <mxGeometry x="-2172.5" y="1314" width="29" height="26" as="geometry" />
        </mxCell>
        <mxCell id="pjgLTpNeczXnPJPAHSIU-89" value="pool" style="rounded=0;whiteSpace=wrap;html=1;" parent="1" vertex="1">
          <mxGeometry x="-2230.5" y="1362" width="29" height="26" as="geometry" />
        </mxCell>
        <mxCell id="pjgLTpNeczXnPJPAHSIU-90" value="&lt;b&gt;pool_header&lt;/b&gt;" style="rounded=0;whiteSpace=wrap;html=1;" parent="1" vertex="1">
          <mxGeometry x="-2230.5" y="1340" width="87" height="22" as="geometry" />
        </mxCell>
        <mxCell id="pjgLTpNeczXnPJPAHSIU-91" value="pool" style="rounded=0;whiteSpace=wrap;html=1;" parent="1" vertex="1">
          <mxGeometry x="-2201.5" y="1362" width="29" height="26" as="geometry" />
        </mxCell>
        <mxCell id="pjgLTpNeczXnPJPAHSIU-92" value="pool" style="rounded=0;whiteSpace=wrap;html=1;" parent="1" vertex="1">
          <mxGeometry x="-2172.5" y="1362" width="29" height="26" as="geometry" />
        </mxCell>
        <mxCell id="pjgLTpNeczXnPJPAHSIU-93" value="pool" style="rounded=0;whiteSpace=wrap;html=1;" parent="1" vertex="1">
          <mxGeometry x="-2230.5" y="1388" width="29" height="26" as="geometry" />
        </mxCell>
        <mxCell id="pjgLTpNeczXnPJPAHSIU-94" value="pool" style="rounded=0;whiteSpace=wrap;html=1;" parent="1" vertex="1">
          <mxGeometry x="-2201.5" y="1388" width="29" height="26" as="geometry" />
        </mxCell>
        <mxCell id="pjgLTpNeczXnPJPAHSIU-95" value="pool" style="rounded=0;whiteSpace=wrap;html=1;" parent="1" vertex="1">
          <mxGeometry x="-2172.5" y="1388" width="29" height="26" as="geometry" />
        </mxCell>
        <UserObject label="全景" placeholders="1" name="Variable" id="pjgLTpNeczXnPJPAHSIU-98">
          <mxCell style="text;html=1;strokeColor=none;fillColor=none;align=center;verticalAlign=middle;whiteSpace=wrap;overflow=hidden;" parent="1" vertex="1">
            <mxGeometry x="-2926" y="911.5" width="80" height="20" as="geometry" />
          </mxCell>
        </UserObject>
        <mxCell id="pjgLTpNeczXnPJPAHSIU-99" value="block" style="rounded=0;whiteSpace=wrap;html=1;" parent="1" vertex="1">
          <mxGeometry x="-2686" y="1140" width="29" height="26" as="geometry" />
        </mxCell>
        <mxCell id="pjgLTpNeczXnPJPAHSIU-100" value="&lt;b&gt;pool_header&lt;/b&gt;" style="rounded=0;whiteSpace=wrap;html=1;" parent="1" vertex="1">
          <mxGeometry x="-2686" y="1118" width="87" height="22" as="geometry" />
        </mxCell>
        <mxCell id="pjgLTpNeczXnPJPAHSIU-101" value="block" style="rounded=0;whiteSpace=wrap;html=1;" parent="1" vertex="1">
          <mxGeometry x="-2657" y="1140" width="29" height="26" as="geometry" />
        </mxCell>
        <mxCell id="pjgLTpNeczXnPJPAHSIU-102" value="block" style="rounded=0;whiteSpace=wrap;html=1;" parent="1" vertex="1">
          <mxGeometry x="-2628" y="1140" width="29" height="26" as="geometry" />
        </mxCell>
        <mxCell id="pjgLTpNeczXnPJPAHSIU-103" value="block" style="rounded=0;whiteSpace=wrap;html=1;" parent="1" vertex="1">
          <mxGeometry x="-2686" y="1166" width="29" height="26" as="geometry" />
        </mxCell>
        <mxCell id="pjgLTpNeczXnPJPAHSIU-104" value="block" style="rounded=0;whiteSpace=wrap;html=1;" parent="1" vertex="1">
          <mxGeometry x="-2657" y="1166" width="29" height="26" as="geometry" />
        </mxCell>
        <mxCell id="pjgLTpNeczXnPJPAHSIU-105" value="block" style="rounded=0;whiteSpace=wrap;html=1;" parent="1" vertex="1">
          <mxGeometry x="-2628" y="1166" width="29" height="26" as="geometry" />
        </mxCell>
        <mxCell id="pjgLTpNeczXnPJPAHSIU-106" value="block" style="rounded=0;whiteSpace=wrap;html=1;" parent="1" vertex="1">
          <mxGeometry x="-2686" y="1214" width="29" height="26" as="geometry" />
        </mxCell>
        <mxCell id="pjgLTpNeczXnPJPAHSIU-107" value="&lt;b&gt;pool_header&lt;/b&gt;" style="rounded=0;whiteSpace=wrap;html=1;" parent="1" vertex="1">
          <mxGeometry x="-2686" y="1192" width="87" height="22" as="geometry" />
        </mxCell>
        <mxCell id="pjgLTpNeczXnPJPAHSIU-108" value="block" style="rounded=0;whiteSpace=wrap;html=1;" parent="1" vertex="1">
          <mxGeometry x="-2657" y="1214" width="29" height="26" as="geometry" />
        </mxCell>
        <mxCell id="pjgLTpNeczXnPJPAHSIU-109" value="block" style="rounded=0;whiteSpace=wrap;html=1;" parent="1" vertex="1">
          <mxGeometry x="-2628" y="1214" width="29" height="26" as="geometry" />
        </mxCell>
        <mxCell id="pjgLTpNeczXnPJPAHSIU-110" value="block" style="rounded=0;whiteSpace=wrap;html=1;" parent="1" vertex="1">
          <mxGeometry x="-2686" y="1240" width="29" height="26" as="geometry" />
        </mxCell>
        <mxCell id="pjgLTpNeczXnPJPAHSIU-111" value="block" style="rounded=0;whiteSpace=wrap;html=1;" parent="1" vertex="1">
          <mxGeometry x="-2657" y="1240" width="29" height="26" as="geometry" />
        </mxCell>
        <mxCell id="pjgLTpNeczXnPJPAHSIU-112" value="block" style="rounded=0;whiteSpace=wrap;html=1;" parent="1" vertex="1">
          <mxGeometry x="-2628" y="1240" width="29" height="26" as="geometry" />
        </mxCell>
        <mxCell id="pjgLTpNeczXnPJPAHSIU-113" value="block" style="rounded=0;whiteSpace=wrap;html=1;" parent="1" vertex="1">
          <mxGeometry x="-2686" y="1288" width="29" height="26" as="geometry" />
        </mxCell>
        <mxCell id="pjgLTpNeczXnPJPAHSIU-114" value="&lt;b&gt;pool_header&lt;/b&gt;" style="rounded=0;whiteSpace=wrap;html=1;" parent="1" vertex="1">
          <mxGeometry x="-2686" y="1266" width="87" height="22" as="geometry" />
        </mxCell>
        <mxCell id="pjgLTpNeczXnPJPAHSIU-115" value="block" style="rounded=0;whiteSpace=wrap;html=1;" parent="1" vertex="1">
          <mxGeometry x="-2657" y="1288" width="29" height="26" as="geometry" />
        </mxCell>
        <mxCell id="pjgLTpNeczXnPJPAHSIU-116" value="block" style="rounded=0;whiteSpace=wrap;html=1;" parent="1" vertex="1">
          <mxGeometry x="-2628" y="1288" width="29" height="26" as="geometry" />
        </mxCell>
        <mxCell id="pjgLTpNeczXnPJPAHSIU-117" value="block" style="rounded=0;whiteSpace=wrap;html=1;" parent="1" vertex="1">
          <mxGeometry x="-2686" y="1314" width="29" height="26" as="geometry" />
        </mxCell>
        <mxCell id="pjgLTpNeczXnPJPAHSIU-118" value="block" style="rounded=0;whiteSpace=wrap;html=1;" parent="1" vertex="1">
          <mxGeometry x="-2657" y="1314" width="29" height="26" as="geometry" />
        </mxCell>
        <mxCell id="pjgLTpNeczXnPJPAHSIU-119" value="block" style="rounded=0;whiteSpace=wrap;html=1;" parent="1" vertex="1">
          <mxGeometry x="-2628" y="1314" width="29" height="26" as="geometry" />
        </mxCell>
        <mxCell id="pjgLTpNeczXnPJPAHSIU-120" value="block" style="rounded=0;whiteSpace=wrap;html=1;" parent="1" vertex="1">
          <mxGeometry x="-2686" y="1362" width="29" height="26" as="geometry" />
        </mxCell>
        <mxCell id="pjgLTpNeczXnPJPAHSIU-121" value="&lt;b&gt;pool_header&lt;/b&gt;" style="rounded=0;whiteSpace=wrap;html=1;" parent="1" vertex="1">
          <mxGeometry x="-2686" y="1340" width="87" height="22" as="geometry" />
        </mxCell>
        <mxCell id="pjgLTpNeczXnPJPAHSIU-122" value="block" style="rounded=0;whiteSpace=wrap;html=1;" parent="1" vertex="1">
          <mxGeometry x="-2657" y="1362" width="29" height="26" as="geometry" />
        </mxCell>
        <mxCell id="pjgLTpNeczXnPJPAHSIU-123" value="block" style="rounded=0;whiteSpace=wrap;html=1;" parent="1" vertex="1">
          <mxGeometry x="-2628" y="1362" width="29" height="26" as="geometry" />
        </mxCell>
        <mxCell id="pjgLTpNeczXnPJPAHSIU-124" value="block" style="rounded=0;whiteSpace=wrap;html=1;" parent="1" vertex="1">
          <mxGeometry x="-2686" y="1388" width="29" height="26" as="geometry" />
        </mxCell>
        <mxCell id="pjgLTpNeczXnPJPAHSIU-125" value="block" style="rounded=0;whiteSpace=wrap;html=1;" parent="1" vertex="1">
          <mxGeometry x="-2657" y="1388" width="29" height="26" as="geometry" />
        </mxCell>
        <mxCell id="pjgLTpNeczXnPJPAHSIU-126" value="block" style="rounded=0;whiteSpace=wrap;html=1;" parent="1" vertex="1">
          <mxGeometry x="-2628" y="1388" width="29" height="26" as="geometry" />
        </mxCell>
        <mxCell id="pjgLTpNeczXnPJPAHSIU-127" value="pool" style="rounded=0;whiteSpace=wrap;html=1;" parent="1" vertex="1">
          <mxGeometry x="-2394" y="1140" width="29" height="26" as="geometry" />
        </mxCell>
        <mxCell id="pjgLTpNeczXnPJPAHSIU-128" value="&lt;b&gt;pool_header&lt;/b&gt;" style="rounded=0;whiteSpace=wrap;html=1;" parent="1" vertex="1">
          <mxGeometry x="-2394" y="1118" width="87" height="22" as="geometry" />
        </mxCell>
        <mxCell id="pjgLTpNeczXnPJPAHSIU-129" value="pool" style="rounded=0;whiteSpace=wrap;html=1;" parent="1" vertex="1">
          <mxGeometry x="-2365" y="1140" width="29" height="26" as="geometry" />
        </mxCell>
        <mxCell id="pjgLTpNeczXnPJPAHSIU-130" value="pool" style="rounded=0;whiteSpace=wrap;html=1;" parent="1" vertex="1">
          <mxGeometry x="-2336" y="1140" width="29" height="26" as="geometry" />
        </mxCell>
        <mxCell id="pjgLTpNeczXnPJPAHSIU-131" value="pool" style="rounded=0;whiteSpace=wrap;html=1;" parent="1" vertex="1">
          <mxGeometry x="-2394" y="1166" width="29" height="26" as="geometry" />
        </mxCell>
        <mxCell id="pjgLTpNeczXnPJPAHSIU-132" value="pool" style="rounded=0;whiteSpace=wrap;html=1;" parent="1" vertex="1">
          <mxGeometry x="-2365" y="1166" width="29" height="26" as="geometry" />
        </mxCell>
        <mxCell id="pjgLTpNeczXnPJPAHSIU-133" value="pool" style="rounded=0;whiteSpace=wrap;html=1;" parent="1" vertex="1">
          <mxGeometry x="-2336" y="1166" width="29" height="26" as="geometry" />
        </mxCell>
        <mxCell id="pjgLTpNeczXnPJPAHSIU-134" value="pool" style="rounded=0;whiteSpace=wrap;html=1;" parent="1" vertex="1">
          <mxGeometry x="-2394" y="1214" width="29" height="26" as="geometry" />
        </mxCell>
        <mxCell id="pjgLTpNeczXnPJPAHSIU-135" value="&lt;b&gt;pool_header&lt;/b&gt;" style="rounded=0;whiteSpace=wrap;html=1;" parent="1" vertex="1">
          <mxGeometry x="-2394" y="1192" width="87" height="22" as="geometry" />
        </mxCell>
        <mxCell id="pjgLTpNeczXnPJPAHSIU-136" value="pool" style="rounded=0;whiteSpace=wrap;html=1;" parent="1" vertex="1">
          <mxGeometry x="-2365" y="1214" width="29" height="26" as="geometry" />
        </mxCell>
        <mxCell id="pjgLTpNeczXnPJPAHSIU-137" value="pool" style="rounded=0;whiteSpace=wrap;html=1;" parent="1" vertex="1">
          <mxGeometry x="-2336" y="1214" width="29" height="26" as="geometry" />
        </mxCell>
        <mxCell id="pjgLTpNeczXnPJPAHSIU-138" value="pool" style="rounded=0;whiteSpace=wrap;html=1;" parent="1" vertex="1">
          <mxGeometry x="-2394" y="1240" width="29" height="26" as="geometry" />
        </mxCell>
        <mxCell id="pjgLTpNeczXnPJPAHSIU-139" value="pool" style="rounded=0;whiteSpace=wrap;html=1;" parent="1" vertex="1">
          <mxGeometry x="-2365" y="1240" width="29" height="26" as="geometry" />
        </mxCell>
        <mxCell id="pjgLTpNeczXnPJPAHSIU-140" value="pool" style="rounded=0;whiteSpace=wrap;html=1;" parent="1" vertex="1">
          <mxGeometry x="-2336" y="1240" width="29" height="26" as="geometry" />
        </mxCell>
        <mxCell id="pjgLTpNeczXnPJPAHSIU-141" value="pool" style="rounded=0;whiteSpace=wrap;html=1;" parent="1" vertex="1">
          <mxGeometry x="-2394" y="1288" width="29" height="26" as="geometry" />
        </mxCell>
        <mxCell id="pjgLTpNeczXnPJPAHSIU-142" value="&lt;b&gt;pool_header&lt;/b&gt;" style="rounded=0;whiteSpace=wrap;html=1;" parent="1" vertex="1">
          <mxGeometry x="-2394" y="1266" width="87" height="22" as="geometry" />
        </mxCell>
        <mxCell id="pjgLTpNeczXnPJPAHSIU-143" value="pool" style="rounded=0;whiteSpace=wrap;html=1;" parent="1" vertex="1">
          <mxGeometry x="-2365" y="1288" width="29" height="26" as="geometry" />
        </mxCell>
        <mxCell id="pjgLTpNeczXnPJPAHSIU-144" value="pool" style="rounded=0;whiteSpace=wrap;html=1;" parent="1" vertex="1">
          <mxGeometry x="-2336" y="1288" width="29" height="26" as="geometry" />
        </mxCell>
        <mxCell id="pjgLTpNeczXnPJPAHSIU-145" value="pool" style="rounded=0;whiteSpace=wrap;html=1;" parent="1" vertex="1">
          <mxGeometry x="-2394" y="1314" width="29" height="26" as="geometry" />
        </mxCell>
        <mxCell id="pjgLTpNeczXnPJPAHSIU-146" value="pool" style="rounded=0;whiteSpace=wrap;html=1;" parent="1" vertex="1">
          <mxGeometry x="-2365" y="1314" width="29" height="26" as="geometry" />
        </mxCell>
        <mxCell id="pjgLTpNeczXnPJPAHSIU-147" value="pool" style="rounded=0;whiteSpace=wrap;html=1;" parent="1" vertex="1">
          <mxGeometry x="-2336" y="1314" width="29" height="26" as="geometry" />
        </mxCell>
        <mxCell id="pjgLTpNeczXnPJPAHSIU-148" value="pool" style="rounded=0;whiteSpace=wrap;html=1;" parent="1" vertex="1">
          <mxGeometry x="-2394" y="1362" width="29" height="26" as="geometry" />
        </mxCell>
        <mxCell id="pjgLTpNeczXnPJPAHSIU-149" value="&lt;b&gt;pool_header&lt;/b&gt;" style="rounded=0;whiteSpace=wrap;html=1;" parent="1" vertex="1">
          <mxGeometry x="-2394" y="1340" width="87" height="22" as="geometry" />
        </mxCell>
        <mxCell id="pjgLTpNeczXnPJPAHSIU-150" value="pool" style="rounded=0;whiteSpace=wrap;html=1;" parent="1" vertex="1">
          <mxGeometry x="-2365" y="1362" width="29" height="26" as="geometry" />
        </mxCell>
        <mxCell id="pjgLTpNeczXnPJPAHSIU-151" value="pool" style="rounded=0;whiteSpace=wrap;html=1;" parent="1" vertex="1">
          <mxGeometry x="-2336" y="1362" width="29" height="26" as="geometry" />
        </mxCell>
        <mxCell id="pjgLTpNeczXnPJPAHSIU-152" value="pool" style="rounded=0;whiteSpace=wrap;html=1;" parent="1" vertex="1">
          <mxGeometry x="-2394" y="1388" width="29" height="26" as="geometry" />
        </mxCell>
        <mxCell id="pjgLTpNeczXnPJPAHSIU-153" value="pool" style="rounded=0;whiteSpace=wrap;html=1;" parent="1" vertex="1">
          <mxGeometry x="-2365" y="1388" width="29" height="26" as="geometry" />
        </mxCell>
        <mxCell id="pjgLTpNeczXnPJPAHSIU-154" value="pool" style="rounded=0;whiteSpace=wrap;html=1;" parent="1" vertex="1">
          <mxGeometry x="-2336" y="1388" width="29" height="26" as="geometry" />
        </mxCell>
        <mxCell id="uFff7qktMHvQNqMNkSl0-1" value="block" style="rounded=0;whiteSpace=wrap;html=1;" parent="1" vertex="1">
          <mxGeometry x="-2542.5" y="1140" width="29" height="26" as="geometry" />
        </mxCell>
        <mxCell id="uFff7qktMHvQNqMNkSl0-2" value="&lt;b&gt;pool_header&lt;/b&gt;" style="rounded=0;whiteSpace=wrap;html=1;" parent="1" vertex="1">
          <mxGeometry x="-2542.5" y="1118" width="87" height="22" as="geometry" />
        </mxCell>
        <mxCell id="uFff7qktMHvQNqMNkSl0-3" value="block" style="rounded=0;whiteSpace=wrap;html=1;" parent="1" vertex="1">
          <mxGeometry x="-2513.5" y="1140" width="29" height="26" as="geometry" />
        </mxCell>
        <mxCell id="uFff7qktMHvQNqMNkSl0-4" value="block" style="rounded=0;whiteSpace=wrap;html=1;" parent="1" vertex="1">
          <mxGeometry x="-2484.5" y="1140" width="29" height="26" as="geometry" />
        </mxCell>
        <mxCell id="uFff7qktMHvQNqMNkSl0-5" value="block" style="rounded=0;whiteSpace=wrap;html=1;" parent="1" vertex="1">
          <mxGeometry x="-2542.5" y="1166" width="29" height="26" as="geometry" />
        </mxCell>
        <mxCell id="uFff7qktMHvQNqMNkSl0-6" value="block" style="rounded=0;whiteSpace=wrap;html=1;" parent="1" vertex="1">
          <mxGeometry x="-2513.5" y="1166" width="29" height="26" as="geometry" />
        </mxCell>
        <mxCell id="uFff7qktMHvQNqMNkSl0-7" value="block" style="rounded=0;whiteSpace=wrap;html=1;" parent="1" vertex="1">
          <mxGeometry x="-2484.5" y="1166" width="29" height="26" as="geometry" />
        </mxCell>
        <mxCell id="uFff7qktMHvQNqMNkSl0-8" value="block" style="rounded=0;whiteSpace=wrap;html=1;" parent="1" vertex="1">
          <mxGeometry x="-2542.5" y="1214" width="29" height="26" as="geometry" />
        </mxCell>
        <mxCell id="uFff7qktMHvQNqMNkSl0-9" value="&lt;b&gt;pool_header&lt;/b&gt;" style="rounded=0;whiteSpace=wrap;html=1;" parent="1" vertex="1">
          <mxGeometry x="-2542.5" y="1192" width="87" height="22" as="geometry" />
        </mxCell>
        <mxCell id="uFff7qktMHvQNqMNkSl0-10" value="block" style="rounded=0;whiteSpace=wrap;html=1;" parent="1" vertex="1">
          <mxGeometry x="-2513.5" y="1214" width="29" height="26" as="geometry" />
        </mxCell>
        <mxCell id="uFff7qktMHvQNqMNkSl0-11" value="block" style="rounded=0;whiteSpace=wrap;html=1;" parent="1" vertex="1">
          <mxGeometry x="-2484.5" y="1214" width="29" height="26" as="geometry" />
        </mxCell>
        <mxCell id="uFff7qktMHvQNqMNkSl0-12" value="block" style="rounded=0;whiteSpace=wrap;html=1;" parent="1" vertex="1">
          <mxGeometry x="-2542.5" y="1240" width="29" height="26" as="geometry" />
        </mxCell>
        <mxCell id="uFff7qktMHvQNqMNkSl0-13" value="block" style="rounded=0;whiteSpace=wrap;html=1;" parent="1" vertex="1">
          <mxGeometry x="-2513.5" y="1240" width="29" height="26" as="geometry" />
        </mxCell>
        <mxCell id="uFff7qktMHvQNqMNkSl0-14" value="block" style="rounded=0;whiteSpace=wrap;html=1;" parent="1" vertex="1">
          <mxGeometry x="-2484.5" y="1240" width="29" height="26" as="geometry" />
        </mxCell>
        <mxCell id="uFff7qktMHvQNqMNkSl0-15" value="block" style="rounded=0;whiteSpace=wrap;html=1;" parent="1" vertex="1">
          <mxGeometry x="-2542.5" y="1288" width="29" height="26" as="geometry" />
        </mxCell>
        <mxCell id="uFff7qktMHvQNqMNkSl0-16" value="&lt;b&gt;pool_header&lt;/b&gt;" style="rounded=0;whiteSpace=wrap;html=1;" parent="1" vertex="1">
          <mxGeometry x="-2542.5" y="1266" width="87" height="22" as="geometry" />
        </mxCell>
        <mxCell id="uFff7qktMHvQNqMNkSl0-17" value="block" style="rounded=0;whiteSpace=wrap;html=1;" parent="1" vertex="1">
          <mxGeometry x="-2513.5" y="1288" width="29" height="26" as="geometry" />
        </mxCell>
        <mxCell id="uFff7qktMHvQNqMNkSl0-18" value="block" style="rounded=0;whiteSpace=wrap;html=1;" parent="1" vertex="1">
          <mxGeometry x="-2484.5" y="1288" width="29" height="26" as="geometry" />
        </mxCell>
        <mxCell id="uFff7qktMHvQNqMNkSl0-19" value="block" style="rounded=0;whiteSpace=wrap;html=1;" parent="1" vertex="1">
          <mxGeometry x="-2542.5" y="1314" width="29" height="26" as="geometry" />
        </mxCell>
        <mxCell id="uFff7qktMHvQNqMNkSl0-20" value="block" style="rounded=0;whiteSpace=wrap;html=1;" parent="1" vertex="1">
          <mxGeometry x="-2513.5" y="1314" width="29" height="26" as="geometry" />
        </mxCell>
        <mxCell id="uFff7qktMHvQNqMNkSl0-21" value="block" style="rounded=0;whiteSpace=wrap;html=1;" parent="1" vertex="1">
          <mxGeometry x="-2484.5" y="1314" width="29" height="26" as="geometry" />
        </mxCell>
        <mxCell id="uFff7qktMHvQNqMNkSl0-22" value="block" style="rounded=0;whiteSpace=wrap;html=1;" parent="1" vertex="1">
          <mxGeometry x="-2542.5" y="1362" width="29" height="26" as="geometry" />
        </mxCell>
        <mxCell id="uFff7qktMHvQNqMNkSl0-23" value="&lt;b&gt;pool_header&lt;/b&gt;" style="rounded=0;whiteSpace=wrap;html=1;" parent="1" vertex="1">
          <mxGeometry x="-2542.5" y="1340" width="87" height="22" as="geometry" />
        </mxCell>
        <mxCell id="uFff7qktMHvQNqMNkSl0-24" value="block" style="rounded=0;whiteSpace=wrap;html=1;" parent="1" vertex="1">
          <mxGeometry x="-2513.5" y="1362" width="29" height="26" as="geometry" />
        </mxCell>
        <mxCell id="uFff7qktMHvQNqMNkSl0-25" value="block" style="rounded=0;whiteSpace=wrap;html=1;" parent="1" vertex="1">
          <mxGeometry x="-2484.5" y="1362" width="29" height="26" as="geometry" />
        </mxCell>
        <mxCell id="uFff7qktMHvQNqMNkSl0-26" value="block" style="rounded=0;whiteSpace=wrap;html=1;" parent="1" vertex="1">
          <mxGeometry x="-2542.5" y="1388" width="29" height="26" as="geometry" />
        </mxCell>
        <mxCell id="uFff7qktMHvQNqMNkSl0-27" value="block" style="rounded=0;whiteSpace=wrap;html=1;" parent="1" vertex="1">
          <mxGeometry x="-2513.5" y="1388" width="29" height="26" as="geometry" />
        </mxCell>
        <mxCell id="uFff7qktMHvQNqMNkSl0-28" value="block" style="rounded=0;whiteSpace=wrap;html=1;" parent="1" vertex="1">
          <mxGeometry x="-2484.5" y="1388" width="29" height="26" as="geometry" />
        </mxCell>
        <mxCell id="uFff7qktMHvQNqMNkSl0-29" value="block" style="rounded=0;whiteSpace=wrap;html=1;" parent="1" vertex="1">
          <mxGeometry x="-2394" y="1140" width="29" height="26" as="geometry" />
        </mxCell>
        <mxCell id="uFff7qktMHvQNqMNkSl0-30" value="&lt;b&gt;pool_header&lt;/b&gt;" style="rounded=0;whiteSpace=wrap;html=1;" parent="1" vertex="1">
          <mxGeometry x="-2394" y="1118" width="87" height="22" as="geometry" />
        </mxCell>
        <mxCell id="uFff7qktMHvQNqMNkSl0-31" value="block" style="rounded=0;whiteSpace=wrap;html=1;" parent="1" vertex="1">
          <mxGeometry x="-2365" y="1140" width="29" height="26" as="geometry" />
        </mxCell>
        <mxCell id="uFff7qktMHvQNqMNkSl0-32" value="block" style="rounded=0;whiteSpace=wrap;html=1;" parent="1" vertex="1">
          <mxGeometry x="-2336" y="1140" width="29" height="26" as="geometry" />
        </mxCell>
        <mxCell id="uFff7qktMHvQNqMNkSl0-33" value="block" style="rounded=0;whiteSpace=wrap;html=1;" parent="1" vertex="1">
          <mxGeometry x="-2394" y="1166" width="29" height="26" as="geometry" />
        </mxCell>
        <mxCell id="uFff7qktMHvQNqMNkSl0-34" value="block" style="rounded=0;whiteSpace=wrap;html=1;" parent="1" vertex="1">
          <mxGeometry x="-2365" y="1166" width="29" height="26" as="geometry" />
        </mxCell>
        <mxCell id="uFff7qktMHvQNqMNkSl0-35" value="block" style="rounded=0;whiteSpace=wrap;html=1;" parent="1" vertex="1">
          <mxGeometry x="-2336" y="1166" width="29" height="26" as="geometry" />
        </mxCell>
        <mxCell id="uFff7qktMHvQNqMNkSl0-36" value="block" style="rounded=0;whiteSpace=wrap;html=1;" parent="1" vertex="1">
          <mxGeometry x="-2394" y="1214" width="29" height="26" as="geometry" />
        </mxCell>
        <mxCell id="uFff7qktMHvQNqMNkSl0-37" value="&lt;b&gt;pool_header&lt;/b&gt;" style="rounded=0;whiteSpace=wrap;html=1;" parent="1" vertex="1">
          <mxGeometry x="-2394" y="1192" width="87" height="22" as="geometry" />
        </mxCell>
        <mxCell id="uFff7qktMHvQNqMNkSl0-38" value="block" style="rounded=0;whiteSpace=wrap;html=1;" parent="1" vertex="1">
          <mxGeometry x="-2365" y="1214" width="29" height="26" as="geometry" />
        </mxCell>
        <mxCell id="uFff7qktMHvQNqMNkSl0-39" value="block" style="rounded=0;whiteSpace=wrap;html=1;" parent="1" vertex="1">
          <mxGeometry x="-2336" y="1214" width="29" height="26" as="geometry" />
        </mxCell>
        <mxCell id="uFff7qktMHvQNqMNkSl0-40" value="block" style="rounded=0;whiteSpace=wrap;html=1;" parent="1" vertex="1">
          <mxGeometry x="-2394" y="1240" width="29" height="26" as="geometry" />
        </mxCell>
        <mxCell id="uFff7qktMHvQNqMNkSl0-41" value="block" style="rounded=0;whiteSpace=wrap;html=1;" parent="1" vertex="1">
          <mxGeometry x="-2365" y="1240" width="29" height="26" as="geometry" />
        </mxCell>
        <mxCell id="uFff7qktMHvQNqMNkSl0-42" value="block" style="rounded=0;whiteSpace=wrap;html=1;" parent="1" vertex="1">
          <mxGeometry x="-2336" y="1240" width="29" height="26" as="geometry" />
        </mxCell>
        <mxCell id="uFff7qktMHvQNqMNkSl0-43" value="block" style="rounded=0;whiteSpace=wrap;html=1;" parent="1" vertex="1">
          <mxGeometry x="-2394" y="1288" width="29" height="26" as="geometry" />
        </mxCell>
        <mxCell id="uFff7qktMHvQNqMNkSl0-44" value="&lt;b&gt;pool_header&lt;/b&gt;" style="rounded=0;whiteSpace=wrap;html=1;" parent="1" vertex="1">
          <mxGeometry x="-2394" y="1266" width="87" height="22" as="geometry" />
        </mxCell>
        <mxCell id="uFff7qktMHvQNqMNkSl0-45" value="block" style="rounded=0;whiteSpace=wrap;html=1;" parent="1" vertex="1">
          <mxGeometry x="-2365" y="1288" width="29" height="26" as="geometry" />
        </mxCell>
        <mxCell id="uFff7qktMHvQNqMNkSl0-46" value="block" style="rounded=0;whiteSpace=wrap;html=1;" parent="1" vertex="1">
          <mxGeometry x="-2336" y="1288" width="29" height="26" as="geometry" />
        </mxCell>
        <mxCell id="uFff7qktMHvQNqMNkSl0-47" value="block" style="rounded=0;whiteSpace=wrap;html=1;" parent="1" vertex="1">
          <mxGeometry x="-2394" y="1314" width="29" height="26" as="geometry" />
        </mxCell>
        <mxCell id="uFff7qktMHvQNqMNkSl0-48" value="block" style="rounded=0;whiteSpace=wrap;html=1;" parent="1" vertex="1">
          <mxGeometry x="-2365" y="1314" width="29" height="26" as="geometry" />
        </mxCell>
        <mxCell id="uFff7qktMHvQNqMNkSl0-49" value="block" style="rounded=0;whiteSpace=wrap;html=1;" parent="1" vertex="1">
          <mxGeometry x="-2336" y="1314" width="29" height="26" as="geometry" />
        </mxCell>
        <mxCell id="uFff7qktMHvQNqMNkSl0-50" value="block" style="rounded=0;whiteSpace=wrap;html=1;" parent="1" vertex="1">
          <mxGeometry x="-2394" y="1362" width="29" height="26" as="geometry" />
        </mxCell>
        <mxCell id="uFff7qktMHvQNqMNkSl0-51" value="&lt;b&gt;pool_header&lt;/b&gt;" style="rounded=0;whiteSpace=wrap;html=1;" parent="1" vertex="1">
          <mxGeometry x="-2394" y="1340" width="87" height="22" as="geometry" />
        </mxCell>
        <mxCell id="uFff7qktMHvQNqMNkSl0-52" value="block" style="rounded=0;whiteSpace=wrap;html=1;" parent="1" vertex="1">
          <mxGeometry x="-2365" y="1362" width="29" height="26" as="geometry" />
        </mxCell>
        <mxCell id="uFff7qktMHvQNqMNkSl0-53" value="block" style="rounded=0;whiteSpace=wrap;html=1;" parent="1" vertex="1">
          <mxGeometry x="-2336" y="1362" width="29" height="26" as="geometry" />
        </mxCell>
        <mxCell id="uFff7qktMHvQNqMNkSl0-54" value="block" style="rounded=0;whiteSpace=wrap;html=1;" parent="1" vertex="1">
          <mxGeometry x="-2394" y="1388" width="29" height="26" as="geometry" />
        </mxCell>
        <mxCell id="uFff7qktMHvQNqMNkSl0-55" value="block" style="rounded=0;whiteSpace=wrap;html=1;" parent="1" vertex="1">
          <mxGeometry x="-2365" y="1388" width="29" height="26" as="geometry" />
        </mxCell>
        <mxCell id="uFff7qktMHvQNqMNkSl0-56" value="block" style="rounded=0;whiteSpace=wrap;html=1;" parent="1" vertex="1">
          <mxGeometry x="-2336" y="1388" width="29" height="26" as="geometry" />
        </mxCell>
        <mxCell id="uFff7qktMHvQNqMNkSl0-57" value="block" style="rounded=0;whiteSpace=wrap;html=1;" parent="1" vertex="1">
          <mxGeometry x="-2230.5" y="1140" width="29" height="26" as="geometry" />
        </mxCell>
        <mxCell id="uFff7qktMHvQNqMNkSl0-58" value="&lt;b&gt;pool_header&lt;/b&gt;" style="rounded=0;whiteSpace=wrap;html=1;" parent="1" vertex="1">
          <mxGeometry x="-2230.5" y="1118" width="87" height="22" as="geometry" />
        </mxCell>
        <mxCell id="uFff7qktMHvQNqMNkSl0-59" value="block" style="rounded=0;whiteSpace=wrap;html=1;" parent="1" vertex="1">
          <mxGeometry x="-2201.5" y="1140" width="29" height="26" as="geometry" />
        </mxCell>
        <mxCell id="uFff7qktMHvQNqMNkSl0-60" value="block" style="rounded=0;whiteSpace=wrap;html=1;" parent="1" vertex="1">
          <mxGeometry x="-2172.5" y="1140" width="29" height="26" as="geometry" />
        </mxCell>
        <mxCell id="uFff7qktMHvQNqMNkSl0-61" value="block" style="rounded=0;whiteSpace=wrap;html=1;" parent="1" vertex="1">
          <mxGeometry x="-2230.5" y="1166" width="29" height="26" as="geometry" />
        </mxCell>
        <mxCell id="uFff7qktMHvQNqMNkSl0-62" value="block" style="rounded=0;whiteSpace=wrap;html=1;" parent="1" vertex="1">
          <mxGeometry x="-2201.5" y="1166" width="29" height="26" as="geometry" />
        </mxCell>
        <mxCell id="uFff7qktMHvQNqMNkSl0-63" value="block" style="rounded=0;whiteSpace=wrap;html=1;" parent="1" vertex="1">
          <mxGeometry x="-2172.5" y="1166" width="29" height="26" as="geometry" />
        </mxCell>
        <mxCell id="uFff7qktMHvQNqMNkSl0-64" value="block" style="rounded=0;whiteSpace=wrap;html=1;" parent="1" vertex="1">
          <mxGeometry x="-2230.5" y="1214" width="29" height="26" as="geometry" />
        </mxCell>
        <mxCell id="uFff7qktMHvQNqMNkSl0-65" value="&lt;b&gt;pool_header&lt;/b&gt;" style="rounded=0;whiteSpace=wrap;html=1;" parent="1" vertex="1">
          <mxGeometry x="-2230.5" y="1192" width="87" height="22" as="geometry" />
        </mxCell>
        <mxCell id="uFff7qktMHvQNqMNkSl0-66" value="block" style="rounded=0;whiteSpace=wrap;html=1;" parent="1" vertex="1">
          <mxGeometry x="-2201.5" y="1214" width="29" height="26" as="geometry" />
        </mxCell>
        <mxCell id="uFff7qktMHvQNqMNkSl0-67" value="block" style="rounded=0;whiteSpace=wrap;html=1;" parent="1" vertex="1">
          <mxGeometry x="-2172.5" y="1214" width="29" height="26" as="geometry" />
        </mxCell>
        <mxCell id="uFff7qktMHvQNqMNkSl0-68" value="block" style="rounded=0;whiteSpace=wrap;html=1;" parent="1" vertex="1">
          <mxGeometry x="-2230.5" y="1240" width="29" height="26" as="geometry" />
        </mxCell>
        <mxCell id="uFff7qktMHvQNqMNkSl0-69" value="block" style="rounded=0;whiteSpace=wrap;html=1;" parent="1" vertex="1">
          <mxGeometry x="-2201.5" y="1240" width="29" height="26" as="geometry" />
        </mxCell>
        <mxCell id="uFff7qktMHvQNqMNkSl0-70" value="block" style="rounded=0;whiteSpace=wrap;html=1;" parent="1" vertex="1">
          <mxGeometry x="-2172.5" y="1240" width="29" height="26" as="geometry" />
        </mxCell>
        <mxCell id="uFff7qktMHvQNqMNkSl0-71" value="block" style="rounded=0;whiteSpace=wrap;html=1;" parent="1" vertex="1">
          <mxGeometry x="-2230.5" y="1288" width="29" height="26" as="geometry" />
        </mxCell>
        <mxCell id="uFff7qktMHvQNqMNkSl0-72" value="&lt;b&gt;pool_header&lt;/b&gt;" style="rounded=0;whiteSpace=wrap;html=1;" parent="1" vertex="1">
          <mxGeometry x="-2230.5" y="1266" width="87" height="22" as="geometry" />
        </mxCell>
        <mxCell id="uFff7qktMHvQNqMNkSl0-73" value="block" style="rounded=0;whiteSpace=wrap;html=1;" parent="1" vertex="1">
          <mxGeometry x="-2201.5" y="1288" width="29" height="26" as="geometry" />
        </mxCell>
        <mxCell id="uFff7qktMHvQNqMNkSl0-74" value="block" style="rounded=0;whiteSpace=wrap;html=1;" parent="1" vertex="1">
          <mxGeometry x="-2172.5" y="1288" width="29" height="26" as="geometry" />
        </mxCell>
        <mxCell id="uFff7qktMHvQNqMNkSl0-75" value="block" style="rounded=0;whiteSpace=wrap;html=1;" parent="1" vertex="1">
          <mxGeometry x="-2230.5" y="1314" width="29" height="26" as="geometry" />
        </mxCell>
        <mxCell id="uFff7qktMHvQNqMNkSl0-76" value="block" style="rounded=0;whiteSpace=wrap;html=1;" parent="1" vertex="1">
          <mxGeometry x="-2201.5" y="1314" width="29" height="26" as="geometry" />
        </mxCell>
        <mxCell id="uFff7qktMHvQNqMNkSl0-77" value="block" style="rounded=0;whiteSpace=wrap;html=1;" parent="1" vertex="1">
          <mxGeometry x="-2172.5" y="1314" width="29" height="26" as="geometry" />
        </mxCell>
        <mxCell id="uFff7qktMHvQNqMNkSl0-78" value="block" style="rounded=0;whiteSpace=wrap;html=1;" parent="1" vertex="1">
          <mxGeometry x="-2230.5" y="1362" width="29" height="26" as="geometry" />
        </mxCell>
        <mxCell id="uFff7qktMHvQNqMNkSl0-79" value="&lt;b&gt;pool_header&lt;/b&gt;" style="rounded=0;whiteSpace=wrap;html=1;" parent="1" vertex="1">
          <mxGeometry x="-2230.5" y="1340" width="87" height="22" as="geometry" />
        </mxCell>
        <mxCell id="uFff7qktMHvQNqMNkSl0-80" value="block" style="rounded=0;whiteSpace=wrap;html=1;" parent="1" vertex="1">
          <mxGeometry x="-2201.5" y="1362" width="29" height="26" as="geometry" />
        </mxCell>
        <mxCell id="uFff7qktMHvQNqMNkSl0-81" value="block" style="rounded=0;whiteSpace=wrap;html=1;" parent="1" vertex="1">
          <mxGeometry x="-2172.5" y="1362" width="29" height="26" as="geometry" />
        </mxCell>
        <mxCell id="uFff7qktMHvQNqMNkSl0-82" value="block" style="rounded=0;whiteSpace=wrap;html=1;" parent="1" vertex="1">
          <mxGeometry x="-2230.5" y="1388" width="29" height="26" as="geometry" />
        </mxCell>
        <mxCell id="uFff7qktMHvQNqMNkSl0-83" value="block" style="rounded=0;whiteSpace=wrap;html=1;" parent="1" vertex="1">
          <mxGeometry x="-2201.5" y="1388" width="29" height="26" as="geometry" />
        </mxCell>
        <mxCell id="uFff7qktMHvQNqMNkSl0-84" value="block" style="rounded=0;whiteSpace=wrap;html=1;" parent="1" vertex="1">
          <mxGeometry x="-2172.5" y="1388" width="29" height="26" as="geometry" />
        </mxCell>
        <mxCell id="vjbUkATBhBl0NCK5gCC0-1" value="&lt;b style=&quot;border-color: var(--border-color);&quot;&gt;block&lt;/b&gt;&lt;b&gt;&lt;br&gt;&lt;/b&gt;" style="rounded=0;whiteSpace=wrap;html=1;" vertex="1" parent="1">
          <mxGeometry x="-1817" y="762" width="72" height="38" as="geometry" />
        </mxCell>
        <mxCell id="vjbUkATBhBl0NCK5gCC0-2" value="&lt;b style=&quot;border-color: var(--border-color);&quot;&gt;block&lt;/b&gt;&lt;b&gt;&lt;br&gt;&lt;/b&gt;" style="rounded=0;whiteSpace=wrap;html=1;" vertex="1" parent="1">
          <mxGeometry x="-1745" y="762" width="72" height="38" as="geometry" />
        </mxCell>
        <mxCell id="vjbUkATBhBl0NCK5gCC0-4" value="&lt;b style=&quot;border-color: var(--border-color);&quot;&gt;block&lt;/b&gt;&lt;b&gt;&lt;br&gt;&lt;/b&gt;" style="rounded=0;whiteSpace=wrap;html=1;" vertex="1" parent="1">
          <mxGeometry x="-1673" y="762" width="72" height="38" as="geometry" />
        </mxCell>
        <mxCell id="vjbUkATBhBl0NCK5gCC0-5" value="&lt;b style=&quot;border-color: var(--border-color);&quot;&gt;block&lt;/b&gt;&lt;b&gt;&lt;br&gt;&lt;/b&gt;" style="rounded=0;whiteSpace=wrap;html=1;" vertex="1" parent="1">
          <mxGeometry x="-1603" y="762" width="72" height="38" as="geometry" />
        </mxCell>
        <mxCell id="vjbUkATBhBl0NCK5gCC0-6" value="&lt;b style=&quot;border-color: var(--border-color);&quot;&gt;block&lt;/b&gt;&lt;b&gt;&lt;br&gt;&lt;/b&gt;" style="rounded=0;whiteSpace=wrap;html=1;" vertex="1" parent="1">
          <mxGeometry x="-1531" y="762" width="72" height="38" as="geometry" />
        </mxCell>
      </root>
    </mxGraphModel>
  </diagram>
</mxfile>
